<svg width="25" height="24" viewBox="0 0 25 24" fill="none" xmlns="http://www.w3.org/2000/svg">
<path d="M16.3771 8.00006H7.95879C7.62644 7.99963 7.30075 8.08366 7.01942 8.24243C6.73808 8.4012 6.51261 8.62821 6.3691 8.89719C6.2011 9.21634 6.13639 9.57142 6.18235 9.92196C6.22831 10.2725 6.38309 10.6044 6.62905 10.8799L10.8382 15.4552C11.0034 15.6262 11.2076 15.7634 11.4371 15.8574C11.6665 15.9514 11.9158 16.0001 12.168 16.0001C12.4202 16.0001 12.6694 15.9514 12.8989 15.8574C13.1283 15.7634 13.3325 15.6262 13.4977 15.4552L17.7069 10.8799C17.9528 10.6044 18.1076 10.2725 18.1536 9.92196C18.1995 9.57142 18.1348 9.21634 17.9668 8.89719C17.8233 8.62821 17.5979 8.4012 17.3165 8.24243C17.0352 8.08366 16.7095 7.99963 16.3771 8.00006Z" fill="#545F71"/>
</svg>
