<svg width="30" height="40" viewBox="0 0 30 40" fill="none" xmlns="http://www.w3.org/2000/svg">
<path d="M11 40C7.96667 40 5.375 38.9583 3.225 36.875C1.075 34.7917 0 32.2333 0 29.2V7.7C0 5.5825 0.75885 3.76978 2.27655 2.26185C3.79425 0.75395 5.61873 0 7.75 0C9.91667 0 11.75 0.75 13.25 2.25C14.75 3.75 15.5 5.58333 15.5 7.75V24.45H13.5V7.7C13.5 6.104 12.9452 4.755 11.8356 3.653C10.726 2.551 9.36762 2 7.76055 2C6.15352 2 4.79167 2.551 3.675 3.653C2.55833 4.755 2 6.104 2 7.7V29.3C2 31.7333 2.88125 33.7917 4.64375 35.475C6.40625 37.1583 8.525 38 11 38C12.2687 38 13.4609 37.7583 14.5766 37.275C15.6922 36.7917 16.6667 36.1333 17.5 35.3V37.9C16.5667 38.5667 15.5583 39.0833 14.475 39.45C13.3917 39.8167 12.2333 40 11 40ZM20.5 37.5V31.5H14.5V28.5H20.5V22.5H23.5V28.5H29.5V31.5H23.5V37.5H20.5ZM11 30V32C9.73333 32 8.66667 31.525 7.8 30.575C6.93333 29.625 6.5 28.5 6.5 27.2V7.6H8.5V27.35C8.5 28.0833 8.73958 28.7083 9.21875 29.225C9.69792 29.7417 10.2917 30 11 30ZM20 18.15V7.6H22V18.15H20Z" fill="#545F71"/>
</svg>
