<svg width="24" height="24" viewBox="0 0 24 24" fill="none" xmlns="http://www.w3.org/2000/svg">
<g clip-path="url(#clip0_306_946)">
<path d="M5.95424 12.7425H11.2575V18.0458H12.7425V12.7425H18.0458L18.0458 11.2576L12.7425 11.2576L12.7425 5.95428H11.2575L11.2575 11.2576L5.95424 11.2576L5.95424 12.7425ZM4.92893 19.0711C3.96255 18.1047 3.23482 17.0058 2.74574 15.7742C2.25666 14.5427 2.01212 13.2846 2.01212 12C2.01212 10.7155 2.25666 9.45741 2.74574 8.22586C3.23482 6.99432 3.96255 5.89536 4.92893 4.92898C5.9071 3.95081 7.01195 3.21719 8.2435 2.72811C9.47504 2.23903 10.7302 1.99743 12.0088 2.00332C13.2875 2.00922 14.5426 2.2567 15.7742 2.74579C17.0057 3.23487 18.1047 3.9626 19.0711 4.92898C20.0492 5.90714 20.7829 7.012 21.2719 8.24354C21.761 9.47509 22.0056 10.7273 22.0056 12C22.0056 13.2728 21.761 14.525 21.2719 15.7565C20.7829 16.9881 20.0492 18.0929 19.0711 19.0711C18.1047 20.0375 17.0057 20.7652 15.7742 21.2543C14.5426 21.7434 13.2875 21.9909 12.0088 21.9968C10.7302 22.0027 9.47504 21.7611 8.2435 21.272C7.01195 20.7829 5.9071 20.0493 4.92893 19.0711Z" fill="#F95F80"/>
</g>
<defs>
<clipPath id="clip0_306_946">
<rect width="24" height="24" fill="white"/>
</clipPath>
</defs>
</svg>
