<svg width="65" height="64" viewBox="0 0 65 64" fill="none" xmlns="http://www.w3.org/2000/svg">
<rect x="0.5" width="64" height="64" rx="32" fill="#F95F80" fill-opacity="0.1"/>
<path d="M41.5909 34.8543V30.127H36.8636V27.9452H41.5909V23.2179H43.7727V27.9452H48.5V30.127H43.7727V34.8543H41.5909ZM28.1364 31.9088C26.5364 31.9088 25.2273 31.3998 24.2091 30.3816C23.1909 29.3634 22.6818 28.0543 22.6818 26.4543C22.6818 24.8543 23.1909 23.5452 24.2091 22.527C25.2273 21.5088 26.5364 20.9998 28.1364 20.9998C29.7364 20.9998 31.0455 21.5088 32.0636 22.527C33.0818 23.5452 33.5909 24.8543 33.5909 26.4543C33.5909 28.0543 33.0818 29.3634 32.0636 30.3816C31.0455 31.3998 29.7364 31.9088 28.1364 31.9088ZM16.5 43.5816V40.1634C16.5 39.3149 16.7121 38.5452 17.1364 37.8543C17.5606 37.1634 18.1727 36.6482 18.9727 36.3088C20.7909 35.5088 22.4071 34.9452 23.8214 34.6179C25.2357 34.2907 26.672 34.127 28.1305 34.127C29.5889 34.127 31.0212 34.2907 32.4273 34.6179C33.8333 34.9452 35.4455 35.5088 37.2636 36.3088C38.0636 36.6725 38.6818 37.1937 39.1182 37.8725C39.5545 38.5513 39.7727 39.3149 39.7727 40.1634V43.5816H16.5ZM18.6818 41.3998H37.5909V40.1634C37.5909 39.7755 37.4818 39.4058 37.2636 39.0543C37.0455 38.7028 36.7545 38.4422 36.3909 38.2725C34.6697 37.4725 33.2152 36.9452 32.0273 36.6907C30.8394 36.4361 29.5424 36.3088 28.1364 36.3088C26.7303 36.3088 25.4273 36.4361 24.2273 36.6907C23.0273 36.9452 21.5667 37.4725 19.8455 38.2725C19.4818 38.4422 19.197 38.7028 18.9909 39.0543C18.7848 39.4058 18.6818 39.7755 18.6818 40.1634V41.3998ZM28.1364 29.727C29.0818 29.727 29.8636 29.4179 30.4818 28.7998C31.1 28.1816 31.4091 27.3998 31.4091 26.4543C31.4091 25.5088 31.1 24.727 30.4818 24.1088C29.8636 23.4907 29.0818 23.1816 28.1364 23.1816C27.1909 23.1816 26.4091 23.4907 25.7909 24.1088C25.1727 24.727 24.8636 25.5088 24.8636 26.4543C24.8636 27.3998 25.1727 28.1816 25.7909 28.7998C26.4091 29.4179 27.1909 29.727 28.1364 29.727Z" fill="#D4356E"/>
</svg>
