<svg width="65" height="64" viewBox="0 0 65 64" fill="none" xmlns="http://www.w3.org/2000/svg">
<rect x="0.5" width="64" height="64" rx="32" fill="#F95F80" fill-opacity="0.1"/>
<path d="M22.9 35.2H42.1V32.8H22.9V35.2ZM22.9 30H42.1V27.6H22.9V30ZM22.9 24.8H42.1V22.4H22.9V24.8ZM48.5 48L42.1 41.6H18.9C18.26 41.6 17.7 41.36 17.22 40.88C16.74 40.4 16.5 39.84 16.5 39.2V18.4C16.5 17.76 16.74 17.2 17.22 16.72C17.7 16.24 18.26 16 18.9 16H46.1C46.74 16 47.3 16.24 47.78 16.72C48.26 17.2 48.5 17.76 48.5 18.4V48ZM43.14 39.2L46.1 42.4V18.4H18.9V39.2H43.14Z" fill="#F95F80"/>
</svg>
