<svg width="25" height="24" viewBox="0 0 25 24" fill="none" xmlns="http://www.w3.org/2000/svg">
<path d="M16.3771 15.0001H7.95879C7.62644 15.0005 7.30075 14.9165 7.01942 14.7577C6.73808 14.5989 6.51261 14.3719 6.3691 14.1029C6.2011 13.7838 6.13639 13.4287 6.18235 13.0782C6.22831 12.7276 6.38309 12.3957 6.62905 12.1203L10.8382 7.5449C11.0034 7.37388 11.2076 7.23672 11.4371 7.14271C11.6665 7.04871 11.9158 7.00006 12.168 7.00006C12.4202 7.00006 12.6694 7.04871 12.8989 7.14271C13.1283 7.23672 13.3325 7.37388 13.4977 7.5449L17.7069 12.1203C17.9528 12.3957 18.1076 12.7276 18.1536 13.0782C18.1995 13.4287 18.1348 13.7838 17.9668 14.1029C17.8233 14.3719 17.5979 14.5989 17.3165 14.7577C17.0352 14.9165 16.7095 15.0005 16.3771 15.0001Z" fill="#545F71"/>
</svg>
