<svg width="25" height="24" viewBox="0 0 25 24" fill="none" xmlns="http://www.w3.org/2000/svg">
<path d="M17.0432 15.0001H8.6248C8.29246 15.0005 7.96677 14.9165 7.68543 14.7577C7.4041 14.5989 7.17863 14.3719 7.03511 14.1029C6.86711 13.7838 6.80241 13.4287 6.84837 13.0782C6.89433 12.7276 7.0491 12.3957 7.29506 12.1203L11.5042 7.5449C11.6694 7.37388 11.8737 7.23672 12.1031 7.14271C12.3325 7.04871 12.5818 7.00006 12.834 7.00006C13.0862 7.00006 13.3355 7.04871 13.5649 7.14271C13.7943 7.23672 13.9985 7.37388 14.1637 7.5449L18.3729 12.1203C18.6189 12.3957 18.7736 12.7276 18.8196 13.0782C18.8656 13.4287 18.8009 13.7838 18.6329 14.1029C18.4893 14.3719 18.2639 14.5989 17.9825 14.7577C17.7012 14.9165 17.3755 15.0005 17.0432 15.0001Z" fill="#ACADAF"/>
</svg>
