<svg width="25" height="24" viewBox="0 0 25 24" fill="none" xmlns="http://www.w3.org/2000/svg">
<path d="M17.0432 8.00006H8.6248C8.29246 7.99963 7.96677 8.08366 7.68543 8.24243C7.4041 8.4012 7.17863 8.62821 7.03511 8.89719C6.86711 9.21634 6.80241 9.57142 6.84837 9.92196C6.89433 10.2725 7.0491 10.6044 7.29506 10.8799L11.5042 15.4552C11.6694 15.6262 11.8737 15.7634 12.1031 15.8574C12.3325 15.9514 12.5818 16.0001 12.834 16.0001C13.0862 16.0001 13.3355 15.9514 13.5649 15.8574C13.7943 15.7634 13.9985 15.6262 14.1637 15.4552L18.3729 10.8799C18.6189 10.6044 18.7736 10.2725 18.8196 9.92196C18.8656 9.57142 18.8009 9.21634 18.6329 8.89719C18.4893 8.62821 18.2639 8.4012 17.9825 8.24243C17.7012 8.08366 17.3755 7.99963 17.0432 8.00006Z" fill="#ACADAF"/>
</svg>
