<svg width="13" height="8" viewBox="0 0 13 8" fill="none" xmlns="http://www.w3.org/2000/svg">
<path d="M11.0432 6.24657e-05H2.6248C2.29246 -0.000369072 1.96677 0.083662 1.68543 0.242431C1.4041 0.401199 1.17863 0.628212 1.03511 0.897194C0.867113 1.21634 0.802407 1.57142 0.848367 1.92196C0.894326 2.2725 1.0491 2.60441 1.29506 2.87985L5.50424 7.45523C5.66943 7.62625 5.87365 7.76341 6.10308 7.85741C6.33251 7.95141 6.58177 8.00006 6.83398 8.00006C7.0862 8.00006 7.33546 7.95141 7.56489 7.85741C7.79432 7.76341 7.99854 7.62625 8.16372 7.45523L12.3729 2.87985C12.6189 2.60441 12.7736 2.2725 12.8196 1.92196C12.8656 1.57142 12.8009 1.21634 12.6329 0.897194C12.4893 0.628212 12.2639 0.401199 11.9825 0.242431C11.7012 0.083662 11.3755 -0.000369072 11.0432 6.24657e-05Z" fill="#ACADAF"/>
</svg>
