<svg width="13" height="8" viewBox="0 0 13 8" fill="none" xmlns="http://www.w3.org/2000/svg">
<path d="M11.0432 8.00006H2.6248C2.29246 8.00049 1.96677 7.91646 1.68543 7.75769C1.4041 7.59892 1.17863 7.37191 1.03511 7.10293C0.867113 6.78378 0.802407 6.4287 0.848367 6.07816C0.894326 5.72762 1.0491 5.39572 1.29506 5.12027L5.50424 0.544896C5.66943 0.373876 5.87365 0.236717 6.10308 0.142714C6.33251 0.048711 6.58177 6.10352e-05 6.83398 6.10352e-05C7.0862 6.10352e-05 7.33546 0.048711 7.56489 0.142714C7.79432 0.236717 7.99854 0.373876 8.16372 0.544896L12.3729 5.12027C12.6189 5.39572 12.7736 5.72762 12.8196 6.07816C12.8656 6.4287 12.8009 6.78378 12.6329 7.10293C12.4893 7.37191 12.2639 7.59892 11.9825 7.75769C11.7012 7.91646 11.3755 8.00049 11.0432 8.00006Z" fill="#ACADAF"/>
</svg>
