<svg width="48" height="48" viewBox="0 0 48 48" fill="none" xmlns="http://www.w3.org/2000/svg">
<path d="M23 44C19.9667 44 17.375 42.9583 15.225 40.875C13.075 38.7917 12 36.2333 12 33.2V11.7C12 9.5825 12.7589 7.76978 14.2766 6.26185C15.7943 4.75395 17.6187 4 19.75 4C21.9167 4 23.75 4.75 25.25 6.25C26.75 7.75 27.5 9.58333 27.5 11.75V28.45H25.5V11.7C25.5 10.104 24.9452 8.755 23.8356 7.653C22.726 6.551 21.3676 6 19.7606 6C18.1535 6 16.7917 6.551 15.675 7.653C14.5583 8.755 14 10.104 14 11.7V33.3C14 35.7333 14.8813 37.7917 16.6438 39.475C18.4062 41.1583 20.525 42 23 42C24.2687 42 25.4609 41.7583 26.5766 41.275C27.6922 40.7917 28.6667 40.1333 29.5 39.3V41.9C28.5667 42.5667 27.5583 43.0833 26.475 43.45C25.3917 43.8167 24.2333 44 23 44ZM32.5 41.5V35.5H26.5V32.5H32.5V26.5H35.5V32.5H41.5V35.5H35.5V41.5H32.5ZM23 34V36C21.7333 36 20.6667 35.525 19.8 34.575C18.9333 33.625 18.5 32.5 18.5 31.2V11.6H20.5V31.35C20.5 32.0833 20.7396 32.7083 21.2188 33.225C21.6979 33.7417 22.2917 34 23 34ZM32 22.15V11.6H34V22.15H32Z" fill="#F95F80"/>
</svg>
