<svg width="65" height="64" viewBox="0 0 65 64" fill="none" xmlns="http://www.w3.org/2000/svg">
<rect x="0.5" width="64" height="64" rx="32" fill="#F95F80" fill-opacity="0.1"/>
<path d="M25.86 41.2H38.74V38.8H25.86V41.2ZM25.86 34.4H38.74V32H25.86V34.4ZM21.9 48C21.26 48 20.7 47.76 20.22 47.28C19.74 46.8 19.5 46.24 19.5 45.6V18.4C19.5 17.76 19.74 17.2 20.22 16.72C20.7 16.24 21.26 16 21.9 16H36.34L45.1 24.76V45.6C45.1 46.24 44.86 46.8 44.38 47.28C43.9 47.76 43.34 48 42.7 48H21.9ZM35.14 25.84V18.4H21.9V45.6H42.7V25.84H35.14Z" fill="#F95F80"/>
</svg>
