<svg width="65" height="64" viewBox="0 0 65 64" fill="none" xmlns="http://www.w3.org/2000/svg">
<rect x="0.5" width="64" height="64" rx="32" fill="#F95F80" fill-opacity="0.1"/>
<path d="M18.2778 48.5556C17.7741 48.5556 17.3519 48.3852 17.0111 48.0444C16.6704 47.7037 16.5 47.2815 16.5 46.7778V37.0444C16.5 36.3111 16.7611 35.6833 17.2833 35.1611C17.8056 34.6389 18.4333 34.3778 19.1667 34.3778H20.3667V26.2889C20.3667 25.5556 20.6278 24.9278 21.15 24.4056C21.6722 23.8833 22.3 23.6222 23.0333 23.6222H31.1667V20.7778C30.5741 20.363 30.1222 19.9106 29.8111 19.4207C29.5 18.9308 29.3444 18.34 29.3444 17.6484C29.3444 17.2161 29.4259 16.8 29.5889 16.4C29.7519 16 29.9815 15.6519 30.2778 15.3556L32.5 13L34.7222 15.3556C35.0185 15.6519 35.2556 16 35.4333 16.4C35.6111 16.8 35.7 17.2161 35.7 17.6484C35.7 18.34 35.537 18.9308 35.2111 19.4207C34.8852 19.9106 34.4259 20.363 33.8333 20.7778V23.6222H41.9667C42.7 23.6222 43.3278 23.8833 43.85 24.4056C44.3722 24.9278 44.6333 25.5556 44.6333 26.2889V34.3778H45.8333C46.5667 34.3778 47.1944 34.6389 47.7167 35.1611C48.2389 35.6833 48.5 36.3111 48.5 37.0444V46.7778C48.5 47.2815 48.3296 47.7037 47.9889 48.0444C47.6481 48.3852 47.2259 48.5556 46.7222 48.5556H18.2778ZM23.0333 34.3778H41.9667V26.2889H23.0333V34.3778ZM19.1667 45.8889H45.8333V37.0444H19.1667V45.8889Z" fill="#F95F80"/>
</svg>
