<svg width="64" height="64" viewBox="0 0 64 64" fill="none" xmlns="http://www.w3.org/2000/svg">
<rect width="64" height="64" rx="32" fill="#F95F80" fill-opacity="0.1"/>
<path d="M42.5 21.5H15.5C14.7044 21.5 13.9413 21.8161 13.3787 22.3787C12.8161 22.9413 12.5 23.7044 12.5 24.5V45.5C12.5 46.2956 12.8161 47.0587 13.3787 47.6213C13.9413 48.1839 14.7044 48.5 15.5 48.5H42.5C43.2956 48.5 44.0587 48.1839 44.6213 47.6213C45.1839 47.0587 45.5 46.2956 45.5 45.5V24.5C45.5 23.7044 45.1839 22.9413 44.6213 22.3787C44.0587 21.8161 43.2956 21.5 42.5 21.5ZM42.5 45.5H15.5V24.5H42.5V45.5ZM51.5 18.5V41C51.5 41.3978 51.342 41.7794 51.0607 42.0607C50.7794 42.342 50.3978 42.5 50 42.5C49.6022 42.5 49.2206 42.342 48.9393 42.0607C48.658 41.7794 48.5 41.3978 48.5 41V18.5H20C19.6022 18.5 19.2206 18.342 18.9393 18.0607C18.658 17.7794 18.5 17.3978 18.5 17C18.5 16.6022 18.658 16.2206 18.9393 15.9393C19.2206 15.658 19.6022 15.5 20 15.5H48.5C49.2957 15.5 50.0587 15.8161 50.6213 16.3787C51.1839 16.9413 51.5 17.7044 51.5 18.5Z" fill="#F95F80"/>
</svg>
