<svg width="25" height="25" viewBox="0 0 25 25" fill="none" xmlns="http://www.w3.org/2000/svg">
<path d="M0 0H12.5C19.4036 0 25 5.59644 25 12.5V25H12.5C5.59644 25 0 19.4036 0 12.5V0Z" fill="#545F71"/>
<path d="M10.8118 14.8L12.9993 12.6125L15.1868 14.8L15.7993 14.1875L13.6118 12L15.7993 9.81246L15.1868 9.19996L12.9993 11.3875L10.8118 9.19996L10.1993 9.81246L12.3868 12L10.1993 14.1875L10.8118 14.8ZM12.9993 17.8333C12.2021 17.8333 11.4487 17.6802 10.7389 17.3739C10.0292 17.0677 9.40942 16.6496 8.87956 16.1198C8.3497 15.5899 7.93164 14.9701 7.62539 14.2604C7.31914 13.5507 7.16602 12.7972 7.16602 12C7.16602 11.193 7.31914 10.4347 7.62539 9.72496C7.93164 9.01524 8.3497 8.39788 8.87956 7.87288C9.40942 7.34788 10.0292 6.93225 10.7389 6.626C11.4487 6.31975 12.2021 6.16663 12.9993 6.16663C13.8063 6.16663 14.5646 6.31975 15.2743 6.626C15.9841 6.93225 16.6014 7.34788 17.1264 7.87288C17.6514 8.39788 18.0671 9.01524 18.3733 9.72496C18.6796 10.4347 18.8327 11.193 18.8327 12C18.8327 12.7972 18.6796 13.5507 18.3733 14.2604C18.0671 14.9701 17.6514 15.5899 17.1264 16.1198C16.6014 16.6496 15.9841 17.0677 15.2743 17.3739C14.5646 17.6802 13.8063 17.8333 12.9993 17.8333Z" fill="white"/>
</svg>
