<svg width="14" height="14" viewBox="0 0 14 14" fill="none" xmlns="http://www.w3.org/2000/svg">
<path d="M4.81185 9.79996L6.99935 7.61246L9.18685 9.79996L9.79935 9.18746L7.61185 6.99996L9.79935 4.81246L9.18685 4.19996L6.99935 6.38746L4.81185 4.19996L4.19935 4.81246L6.38685 6.99996L4.19935 9.18746L4.81185 9.79996ZM6.99935 12.8333C6.20213 12.8333 5.44865 12.6802 4.73893 12.3739C4.02921 12.0677 3.40942 11.6496 2.87956 11.1198C2.3497 10.5899 1.93164 9.9701 1.62539 9.26038C1.31914 8.55065 1.16602 7.79718 1.16602 6.99996C1.16602 6.19301 1.31914 5.43468 1.62539 4.72496C1.93164 4.01524 2.3497 3.39788 2.87956 2.87288C3.40942 2.34788 4.02921 1.93225 4.73893 1.626C5.44865 1.31975 6.20213 1.16663 6.99935 1.16663C7.80629 1.16663 8.56463 1.31975 9.27435 1.626C9.98407 1.93225 10.6014 2.34788 11.1264 2.87288C11.6514 3.39788 12.0671 4.01524 12.3733 4.72496C12.6796 5.43468 12.8327 6.19301 12.8327 6.99996C12.8327 7.79718 12.6796 8.55065 12.3733 9.26038C12.0671 9.9701 11.6514 10.5899 11.1264 11.1198C10.6014 11.6496 9.98407 12.0677 9.27435 12.3739C8.56463 12.6802 7.80629 12.8333 6.99935 12.8333Z" fill="white"/>
</svg>
