<svg width="25" height="25" viewBox="0 0 25 25" fill="none" xmlns="http://www.w3.org/2000/svg">
<path d="M0 0H12.5C19.4036 0 25 5.59644 25 12.5V25H12.5C5.59644 25 0 19.4036 0 12.5V0Z" fill="#F95F80"/>
<path d="M9.81185 15.8001L11.9993 13.6126L14.1868 15.8001L14.7993 15.1876L12.6118 13.0001L14.7993 10.8126L14.1868 10.2001L11.9993 12.3876L9.81185 10.2001L9.19935 10.8126L11.3868 13.0001L9.19935 15.1876L9.81185 15.8001ZM11.9993 18.8334C11.2021 18.8334 10.4487 18.6803 9.73893 18.374C9.02921 18.0678 8.40942 17.6497 7.87956 17.1199C7.3497 16.59 6.93164 15.9702 6.62539 15.2605C6.31914 14.5508 6.16602 13.7973 6.16602 13.0001C6.16602 12.1931 6.31914 11.4348 6.62539 10.7251C6.93164 10.0154 7.3497 9.398 7.87956 8.873C8.40942 8.348 9.02921 7.93237 9.73893 7.62612C10.4487 7.31987 11.2021 7.16675 11.9993 7.16675C12.8063 7.16675 13.5646 7.31987 14.2743 7.62612C14.9841 7.93237 15.6014 8.348 16.1264 8.873C16.6514 9.398 17.0671 10.0154 17.3733 10.7251C17.6796 11.4348 17.8327 12.1931 17.8327 13.0001C17.8327 13.7973 17.6796 14.5508 17.3733 15.2605C17.0671 15.9702 16.6514 16.59 16.1264 17.1199C15.6014 17.6497 14.9841 18.0678 14.2743 18.374C13.5646 18.6803 12.8063 18.8334 11.9993 18.8334Z" fill="white"/>
</svg>
