<svg width="65" height="64" viewBox="0 0 65 64" fill="none" xmlns="http://www.w3.org/2000/svg">
<rect x="0.5" width="64" height="64" rx="32" fill="#F95F80" fill-opacity="0.1"/>
<path d="M18.9 48C18.26 48 17.7 47.76 17.22 47.28C16.74 46.8 16.5 46.24 16.5 45.6V26.4C16.5 25.76 16.74 25.2 17.22 24.72C17.7 24.24 18.26 24 18.9 24H28.9V18.4C28.9 17.76 29.14 17.2 29.62 16.72C30.1 16.24 30.6655 16 31.3164 16H33.6836C34.3345 16 34.9 16.24 35.38 16.72C35.86 17.2 36.1 17.76 36.1 18.4V24H46.1C46.74 24 47.3 24.24 47.78 24.72C48.26 25.2 48.5 25.76 48.5 26.4V45.6C48.5 46.24 48.26 46.8 47.78 47.28C47.3 47.76 46.74 48 46.1 48H18.9ZM18.9 45.6H46.1V26.4H36.1V27.6C36.1 28.3467 35.86 28.9333 35.38 29.36C34.9 29.7867 34.3345 30 33.6836 30H31.3164C30.6655 30 30.1 29.7867 29.62 29.36C29.14 28.9333 28.9 28.3467 28.9 27.6V26.4H18.9V45.6ZM22.58 41.32H32.14V40.76C32.14 40.28 32.02 39.8533 31.78 39.48C31.54 39.1067 31.2333 38.8533 30.86 38.72C30.0067 38.4267 29.34 38.2333 28.86 38.14C28.38 38.0467 27.9133 38 27.46 38C26.9533 38 26.4133 38.06 25.84 38.18C25.2667 38.3 24.62 38.48 23.9 38.72C23.5 38.8533 23.18 39.1067 22.94 39.48C22.7 39.8533 22.58 40.28 22.58 40.76V41.32ZM36.02 38.64H42.82V36.64H36.02V38.64ZM27.46 36.64C28.06 36.64 28.57 36.43 28.99 36.01C29.41 35.59 29.62 35.08 29.62 34.48C29.62 33.88 29.41 33.37 28.99 32.95C28.57 32.53 28.06 32.32 27.46 32.32C26.86 32.32 26.35 32.53 25.93 32.95C25.51 33.37 25.3 33.88 25.3 34.48C25.3 35.08 25.51 35.59 25.93 36.01C26.35 36.43 26.86 36.64 27.46 36.64ZM36.02 34.12H42.82V32.12H36.02V34.12ZM31.3 27.6H33.7V18.4H31.3V27.6Z" fill="#F95F80"/>
</svg>
