<svg width="65" height="64" viewBox="0 0 65 64" fill="none" xmlns="http://www.w3.org/2000/svg">
<rect x="0.5" width="64" height="64" rx="32" fill="#F95F80" fill-opacity="0.1"/>
<g clip-path="url(#clip0_60_19437)">
<path d="M21.6662 28.1703C23.5222 28.1703 25.0267 26.6657 25.0267 24.8098C25.0267 22.9538 23.5222 21.4492 21.6662 21.4492C19.8102 21.4492 18.3057 22.9538 18.3057 24.8098C18.3057 26.6657 19.8102 28.1703 21.6662 28.1703Z" fill="#F4B2B0"/>
<path d="M21.6669 29.248C19.2196 29.248 17.2285 27.2569 17.2285 24.8095C17.2285 22.3622 19.2196 20.3711 21.6669 20.3711C24.1143 20.3711 26.1054 22.3622 26.1054 24.8095C26.1054 27.2569 24.1143 29.248 21.6669 29.248ZM21.6669 22.5273C20.4085 22.5273 19.3848 23.5512 19.3848 24.8095C19.3848 26.0679 20.4086 27.0917 21.6669 27.0917C22.9253 27.0917 23.9491 26.0679 23.9491 24.8095C23.9491 23.5512 22.9253 22.5273 21.6669 22.5273Z" fill="#B3404A"/>
<path d="M21.6666 39.8557C21.405 39.8557 21.1433 39.7609 20.937 39.5713C20.5926 39.2547 12.5 31.7365 12.5 24.7801C12.5 23.807 12.652 22.8484 12.9517 21.9311C13.1366 21.365 13.7455 21.0561 14.3113 21.2411C14.8773 21.4261 15.1862 22.0347 15.0012 22.6007C14.7723 23.3015 14.6562 24.0348 14.6562 24.7801C14.6562 29.6753 19.7422 35.3109 21.6689 37.2699C21.9907 36.9445 22.3998 36.5177 22.8568 36.0105C23.2553 35.568 23.9369 35.5324 24.3794 35.9311C24.8218 36.3297 24.8574 37.0114 24.4588 37.4538C23.2924 38.7485 22.4305 39.5399 22.3944 39.573C22.1884 39.7615 21.9275 39.8557 21.6666 39.8557Z" fill="#B3404A"/>
<path d="M26.7017 33.9427C26.4945 33.9427 26.285 33.8831 26.1002 33.7586C25.6064 33.4258 25.4757 32.7558 25.8085 32.262C27.7116 29.4379 28.6765 26.9205 28.6765 24.7797C28.6765 20.9142 25.5317 17.7694 21.6661 17.7694C20.1622 17.7694 18.7289 18.2383 17.5211 19.1255C17.0413 19.4779 16.3665 19.3748 16.014 18.8948C15.6615 18.4149 15.7647 17.7402 16.2447 17.3877C17.8253 16.2268 19.7 15.6133 21.6662 15.6133C26.7207 15.6133 30.8328 19.7254 30.8328 24.7799C30.8328 27.3577 29.7442 30.2805 27.5968 33.4671C27.3885 33.7759 27.0482 33.9427 26.7017 33.9427Z" fill="#B3404A"/>
<path d="M43.3332 28.1703C45.1892 28.1703 46.6937 26.6657 46.6937 24.8098C46.6937 22.9538 45.1892 21.4492 43.3332 21.4492C41.4772 21.4492 39.9727 22.9538 39.9727 24.8098C39.9727 26.6657 41.4772 28.1703 43.3332 28.1703Z" fill="#F4B2B0"/>
<path d="M43.3339 29.248C40.8866 29.248 38.8955 27.2569 38.8955 24.8095C38.8955 22.3622 40.8866 20.3711 43.3339 20.3711C45.7813 20.3711 47.7724 22.3622 47.7724 24.8095C47.7724 27.2569 45.7813 29.248 43.3339 29.248ZM43.3339 22.5273C42.0755 22.5273 41.0518 23.5512 41.0518 24.8095C41.0518 26.0679 42.0756 27.0917 43.3339 27.0917C44.5923 27.0917 45.6161 26.0679 45.6161 24.8095C45.6161 23.5512 44.5924 22.5273 43.3339 22.5273Z" fill="#B3404A"/>
<path d="M43.3336 39.8557C43.072 39.8557 42.8103 39.7609 42.604 39.5713C42.2596 39.2547 34.167 31.7365 34.167 24.7801C34.167 23.807 34.319 22.8484 34.6187 21.9311C34.8036 21.365 35.4125 21.0561 35.9783 21.2411C36.5443 21.4261 36.8532 22.0347 36.6682 22.6007C36.4393 23.3015 36.3232 24.0348 36.3232 24.7801C36.3232 29.6753 41.4092 35.3109 43.3359 37.2699C43.6577 36.9445 44.0669 36.5177 44.5238 36.0105C44.9224 35.5681 45.6042 35.5327 46.0464 35.9311C46.4889 36.3297 46.5244 37.0114 46.1258 37.4538C44.9592 38.7485 44.0974 39.5399 44.0613 39.573C43.8554 39.7615 43.5945 39.8557 43.3336 39.8557Z" fill="#B3404A"/>
<path d="M48.3696 33.9427C48.1625 33.9427 47.9529 33.8831 47.7682 33.7586C47.2744 33.4258 47.1437 32.7558 47.4765 32.262C49.3796 29.4379 50.3445 26.9205 50.3445 24.7797C50.3445 20.9142 47.1996 17.7694 43.3341 17.7694C41.8302 17.7694 40.3968 18.2383 39.1891 19.1255C38.7093 19.4778 38.0344 19.3748 37.682 18.8948C37.3294 18.4149 37.4327 17.7401 37.9127 17.3877C39.4932 16.2268 41.3678 15.6133 43.3342 15.6133C48.3887 15.6133 52.5008 19.7254 52.5008 24.7799C52.5008 27.3577 51.4121 30.2805 49.2648 33.4671C49.0565 33.7759 48.7161 33.9427 48.3696 33.9427Z" fill="#B3404A"/>
<path d="M21.6664 47.3085C22.7685 47.3085 23.662 46.415 23.662 45.3129C23.662 44.2108 22.7685 43.3174 21.6664 43.3174C20.5643 43.3174 19.6709 44.2108 19.6709 45.3129C19.6709 46.415 20.5643 47.3085 21.6664 47.3085Z" fill="#F4B2B0"/>
<path d="M43.3334 47.3085C44.4355 47.3085 45.329 46.415 45.329 45.3129C45.329 44.2108 44.4355 43.3174 43.3334 43.3174C42.2313 43.3174 41.3379 44.2108 41.3379 45.3129C41.3379 46.415 42.2313 47.3085 43.3334 47.3085Z" fill="#F4B2B0"/>
<path d="M34.0096 44.2348H24.5444C24.1067 43.0703 22.982 42.2393 21.6664 42.2393C19.9716 42.2393 18.5928 43.6181 18.5928 45.3129C18.5928 47.0078 19.9716 48.3866 21.6664 48.3866C22.982 48.3866 24.1067 47.5556 24.5444 46.391H34.0096C34.6051 46.391 35.0877 45.9084 35.0877 45.3129C35.0877 44.7175 34.6051 44.2348 34.0096 44.2348ZM21.6664 46.2303C21.1606 46.2303 20.749 45.8189 20.749 45.3129C20.749 44.8071 21.1606 44.3955 21.6664 44.3955C22.1723 44.3955 22.5839 44.807 22.5839 45.3129C22.5838 45.8188 22.1723 46.2303 21.6664 46.2303Z" fill="#B3404A"/>
<path d="M43.3327 42.2393C42.0172 42.2393 40.8925 43.0703 40.4548 44.2348H38.7168C38.1213 44.2348 37.6387 44.7175 37.6387 45.3129C37.6387 45.9084 38.1213 46.391 38.7168 46.391H40.4548C40.8925 47.5555 42.0172 48.3866 43.3327 48.3866C45.0276 48.3866 46.4064 47.0078 46.4064 45.3129C46.4064 43.6181 45.0276 42.2393 43.3327 42.2393ZM43.3327 46.2302C42.8269 46.2302 42.4153 45.8187 42.4153 45.3128C42.4153 44.8069 42.8268 44.3953 43.3327 44.3953C43.8386 44.3953 44.2501 44.8068 44.2501 45.3128C44.2501 45.8186 43.8386 46.2302 43.3327 46.2302Z" fill="#B3404A"/>
</g>
<defs>
<clipPath id="clip0_60_19437">
<rect width="40" height="40" fill="white" transform="translate(12.5 12)"/>
</clipPath>
</defs>
</svg>
