<svg width="89" height="88" viewBox="0 0 89 88" fill="none" xmlns="http://www.w3.org/2000/svg">
<rect x="0.5" width="88" height="88" rx="44" fill="white"/>
<path d="M43.9818 31.9818C44.6182 31.3455 45 30.4545 45 29.5C45 28.5455 44.6182 27.6545 43.9818 27.0182C43.3455 26.3818 42.4545 26 41.5 26C40.5455 26 39.6545 26.3818 39.0182 27.0182C38.3818 27.6545 38 28.5455 38 29.5C38 30.4545 38.3818 31.3455 39.0182 31.9818C39.6545 32.6182 40.5455 33 41.5 33C42.4545 33 43.3455 32.6818 43.9818 31.9818ZM39.9091 29.5C39.9091 29.0545 40.1 28.6727 40.3545 28.3545C40.6727 28.0364 41.0545 27.9091 41.5 27.9091C41.9455 27.9091 42.3273 28.1 42.6455 28.3545C42.9636 28.6091 43.0909 29.0545 43.0909 29.5C43.0909 29.9455 42.9 30.3273 42.6455 30.6455C42.0727 31.2182 40.9909 31.2182 40.4182 30.6455C40.1 30.3273 39.9091 29.9455 39.9091 29.5Z" fill="#F95F80"/>
<path d="M34.917 34.0664C34.3843 33.8664 33.8515 34.1331 33.6518 34.6664L21.0666 66.6667C20.9334 67.0667 21 67.4667 21.2664 67.7333C21.4661 67.9333 21.7325 68 21.9988 68C22.132 68 22.2652 68 22.3318 67.9333L54.3607 55.3332C54.8935 55.1332 55.0932 54.5999 54.96 54.0666C51.6306 44.6665 44.3725 37.3331 34.917 34.0664ZM23.7967 65.2666L35.1833 36.2664C43.3071 39.3998 49.633 45.7332 52.7626 53.8666L23.7967 65.2666Z" fill="#F95F80"/>
<path d="M45.625 19.2193C48.5362 24.9151 48.5995 31.6869 45.7516 37.3827L47.4603 38.2054C50.5614 31.94 50.4981 24.5354 47.3338 18.3333L45.625 19.2193Z" fill="#F95F80"/>
<path d="M35.9425 32.0033C36.8918 28.5225 36.1324 24.7886 33.9173 21.9407L32.3984 23.1431C34.2338 25.4848 34.8666 28.6491 34.1072 31.497L35.9425 32.0033Z" fill="#F95F80"/>
<path d="M50.877 41.6862L51.6997 43.395C57.3955 40.547 64.2306 40.6103 69.8631 43.5215L70.7491 41.8128C64.547 38.6484 57.1424 38.5851 50.877 41.6862Z" fill="#F95F80"/>
<path d="M57.1426 53.2044L57.6489 55.0397C60.5601 54.217 63.6612 54.8498 66.0028 56.7485L67.2052 55.2296C64.4206 53.0145 60.6234 52.2551 57.1426 53.2044Z" fill="#F95F80"/>
<path d="M68.9312 23.247C68.7989 22.9157 68.402 22.6506 68.0712 22.6506H65.4253L63.97 20.4639C63.7715 20.1325 63.3746 20 63.0439 20C62.647 20.0663 62.3824 20.2651 62.2501 20.6627L61.324 23.1807L58.7442 23.9096C58.4134 24.0422 58.0827 24.3072 58.0165 24.7048C57.9504 25.1024 58.0827 25.4337 58.4134 25.6988L60.4641 27.2892L60.2656 29.9398C60.2656 30.3373 60.4641 30.6687 60.7948 30.8675C60.9271 30.9337 61.1256 31 61.2578 31C61.4563 31 61.6547 30.9337 61.8532 30.8012L64.1023 29.2771L66.5498 30.2048C66.8805 30.3374 67.2774 30.2711 67.542 30.006C67.8066 29.741 67.9389 29.3434 67.8066 29.012L67.079 26.4277L68.7989 24.3072C68.9973 23.9759 69.0635 23.5783 68.9312 23.247ZM65.0284 26.4277L65.3591 27.6205L64.2346 27.2229C63.9038 27.0904 63.5731 27.1566 63.3085 27.3554L62.3824 28.0181L62.4485 26.8916C62.4485 26.5602 62.3162 26.2289 62.0516 26.0301L61.1256 25.3675L62.3162 25.0361C62.647 24.9699 62.8454 24.7048 62.9777 24.4398L63.3746 23.3133L63.97 24.241C64.1684 24.506 64.433 24.7048 64.8299 24.7048H65.9545L65.2268 25.6325C64.9622 25.7651 64.8961 26.0964 65.0284 26.4277Z" fill="#F95F80"/>
<path d="M55 38C56.0909 38 57.1091 37.5636 57.8364 36.8364C58.5636 36.1091 59 35.0909 59 34C59 32.9091 58.5636 31.8909 57.8364 31.1636C57.1091 30.4364 56.0909 30 55 30C53.9091 30 52.8909 30.4364 52.1636 31.1636C51.4364 31.8909 51 32.9091 51 34C51 35.0909 51.4364 36.1091 52.1636 36.8364C52.9636 37.5636 53.9091 38 55 38ZM53.7636 32.6909C54.1273 32.3273 54.5636 32.1818 55.0727 32.1818C55.5818 32.1818 56.0182 32.4 56.3818 32.6909C56.7455 32.9818 56.8909 33.4909 56.8909 34C56.8909 34.5091 56.6727 34.9455 56.3818 35.3091C55.7273 35.9636 54.4909 35.9636 53.8364 35.3091C53.4727 34.9455 53.3273 34.5091 53.3273 34C53.3273 33.4909 53.4 33.0545 53.7636 32.6909Z" fill="#F95F80"/>
<path d="M57.0182 44.0046C56.3818 44.6424 56 45.5353 56 46.492C56 47.4487 56.3818 48.3417 57.0182 48.9795C57.6545 49.6173 58.5455 50 59.5 50C60.4545 50 61.3455 49.6173 61.9818 48.9795C62.6182 48.3417 63 47.4487 63 46.492C63 45.5353 62.6182 44.6424 61.9818 44.0046C60.5818 42.6651 58.4182 42.6651 57.0182 44.0046ZM60.6455 47.6401C60.0727 48.2141 58.9909 48.2141 58.4182 47.6401C58.1 47.3212 57.9727 46.9385 57.9727 46.492C57.9727 46.0456 58.1636 45.6629 58.4182 45.344C58.7364 45.0251 59.1182 44.8975 59.5636 44.8975C59.9455 44.8975 60.3909 45.0251 60.7091 45.344C61.0273 45.6629 61.1545 46.0456 61.1545 46.492C61.1545 46.9385 60.9 47.3212 60.6455 47.6401Z" fill="#F95F80"/>
<path d="M24.9077 36.5337C25.1059 36.8002 25.4361 37 25.7663 37C25.8323 37 25.8323 37 25.8983 37C26.2946 36.9334 26.6248 36.7336 26.7569 36.3339L27.6814 33.8027L30.257 33.07C30.5872 32.9367 30.9174 32.6703 30.9835 32.2706C31.0495 31.871 30.9174 31.5379 30.5872 31.2715L28.54 29.7394L28.7381 27.075C28.7381 26.6753 28.606 26.3423 28.2758 26.1424C27.9456 25.9426 27.5494 25.9426 27.2192 26.2091L24.9738 27.7411L22.5303 26.8086C22.2001 26.6753 21.8038 26.7419 21.5397 27.0084C21.2755 27.2748 21.1434 27.6745 21.2755 28.0075L21.9359 30.5388L20.2188 32.6703C19.9547 32.9367 19.9547 33.403 20.0868 33.7361C20.2188 34.0691 20.6151 34.3356 20.9453 34.3356H23.5869L24.9077 36.5337ZM23.9171 30.5388L23.5869 29.3398L24.7096 29.7394C25.0398 29.8726 25.37 29.806 25.6342 29.6062L26.5588 28.9401L26.4927 30.0725C26.4927 30.4055 26.6248 30.7386 26.889 30.9384L27.8135 31.6045L26.6248 31.9376C26.2946 32.0042 26.0965 32.2706 25.9644 32.5371L25.5021 33.6695L24.9077 32.7369C24.7096 32.4705 24.4455 32.2706 24.1152 32.2706H22.9926L23.719 31.3381C23.9171 31.2049 24.0492 30.8718 23.9171 30.5388Z" fill="#F95F80"/>
<path d="M52.6713 62.2361C52.342 62.3701 52.0785 62.7049 52.0126 63.1067C51.9468 63.5085 52.1444 63.8434 52.4737 64.0443L54.7132 65.4506L54.779 68.0624C54.779 68.4642 55.0425 68.7991 55.3718 68.933C55.5036 69 55.6353 69 55.767 69C55.9646 69 56.2281 68.933 56.3598 68.7991L58.4676 67.0579L61.1023 67.7276C61.4316 67.7946 61.8268 67.7276 62.0903 67.3927C62.3538 67.1249 62.4196 66.7231 62.2879 66.3212L61.2999 63.9103L62.8148 61.7004C63.0124 61.3655 63.0783 60.9637 62.8807 60.6289C62.6831 60.294 62.3538 60.0931 61.9585 60.0931L59.258 60.428L57.6113 58.3519C57.3479 58.084 57.0185 57.9501 56.6233 58.0171C56.2281 58.084 55.9646 58.3519 55.8988 58.7537L55.2401 61.2986L52.6713 62.2361ZM56.3598 63.0397C56.6892 62.9058 56.8868 62.7049 56.9527 62.3701L57.282 61.1646L58.0065 62.1022C58.2041 62.3701 58.5335 62.504 58.8628 62.437L59.9825 62.3701L59.3239 63.3076C59.1263 63.5755 59.1263 63.9773 59.1921 64.2452L59.5873 65.3167L58.4017 64.9819C58.0724 64.9149 57.7431 64.9819 57.5455 65.1828L56.6233 65.9864L56.5574 64.8479C56.5574 64.5131 56.3598 64.1782 56.0964 64.0443L55.1742 63.4416L56.3598 63.0397Z" fill="#F95F80"/>
</svg>
