<svg width="65" height="64" viewBox="0 0 65 64" fill="none" xmlns="http://www.w3.org/2000/svg">
<rect x="0.5" width="64" height="64" rx="32" fill="#F95F80" fill-opacity="0.1"/>
<path d="M25.5105 45.4705H38.1588V27.3414H34.3643C33.5773 27.3414 32.9168 27.5593 32.3827 27.9949C31.8487 28.4306 31.2444 29.0279 30.5698 29.7867C29.839 30.6019 29.038 31.3186 28.1667 31.9369C27.2953 32.5553 26.41 32.9769 25.5105 33.2018V45.4705ZM22.9809 48.0002V33.1596C21.5193 32.7661 20.2404 32.0213 19.1443 30.9251C18.0481 29.8289 17.5 28.4938 17.5 26.9198C17.5 25.4301 17.9286 24.1091 18.7859 22.9567C19.6432 21.8043 20.7464 21.0033 22.0955 20.5535C22.742 19.2044 23.7047 18.1082 24.9835 17.265C26.2624 16.4218 27.7029 16.0002 29.305 16.0002C30.2888 16.0002 31.2093 16.1688 32.0665 16.5061C32.9238 16.8434 33.7038 17.2931 34.4065 17.8553C34.6875 17.799 34.9545 17.7499 35.2075 17.7077C35.4605 17.6655 35.7415 17.6445 36.0507 17.6445C37.9058 17.6445 39.4939 18.305 40.8149 19.626C42.1359 20.947 42.7964 22.5351 42.7964 24.3902C42.7964 25.0085 42.67 25.6269 42.417 26.2452C42.164 26.8636 41.8408 27.3695 41.4473 27.763H45.3261C46.0288 27.763 46.626 28.009 47.1179 28.5008C47.6098 28.9927 47.8557 29.59 47.8557 30.2927V42.0977C47.8557 42.8004 47.6098 43.3976 47.1179 43.8895C46.626 44.3814 46.0288 44.6273 45.3261 44.6273H40.6884V48.0002H22.9809ZM20.0296 26.9198C20.0296 27.9879 20.4653 28.8873 21.3366 29.6181C22.2079 30.3489 23.1776 30.7143 24.2457 30.7143C25.1451 30.7143 25.9603 30.4683 26.691 29.9765C27.4218 29.4846 28.1667 28.7749 28.9256 27.8474C29.572 27.0604 30.345 26.3577 31.2444 25.7393C32.1438 25.121 33.1838 24.8118 34.3643 24.8118H40.2668C40.2668 23.547 39.8944 22.4578 39.1495 21.5443C38.4047 20.6308 37.3718 20.1741 36.0507 20.1741C35.5448 20.1741 35.0459 20.2514 34.554 20.406L33.8162 20.6379L33.0152 19.9633C32.5092 19.5136 31.933 19.1622 31.2866 18.9093C30.6401 18.6563 29.9796 18.5298 29.305 18.5298C28.3213 18.5298 27.3797 18.7828 26.4802 19.2887C25.5808 19.7946 24.9203 20.4973 24.4987 21.3968L23.9084 22.6616L22.5593 23.1253C21.8285 23.3783 21.2242 23.8772 20.7464 24.6221C20.2686 25.3669 20.0296 26.1328 20.0296 26.9198ZM40.6884 42.0977H45.3261V30.2927H40.6884V42.0977Z" fill="#F95F80"/>
</svg>
