<svg width="65" height="64" viewBox="0 0 65 64" fill="none" xmlns="http://www.w3.org/2000/svg">
<rect x="0.5" width="64" height="64" rx="32" fill="#F95F80" fill-opacity="0.1"/>
<path d="M26.5 48C23.7148 48 21.3519 47.0296 19.4111 45.0889C17.4704 43.1481 16.5 40.7852 16.5 38C16.5 36.6667 16.7519 35.3926 17.2556 34.1778C17.7593 32.963 18.4852 31.8815 19.4333 30.9333L31.4333 18.9333C32.3815 17.9852 33.463 17.2593 34.6778 16.7556C35.8926 16.2519 37.1667 16 38.5 16C41.2852 16 43.6481 16.9704 45.5889 18.9111C47.5296 20.8519 48.5 23.2148 48.5 26C48.5 27.3333 48.2481 28.6074 47.7444 29.8222C47.2407 31.037 46.5148 32.1185 45.5667 33.0667L33.5667 45.0667C32.6185 46.0148 31.537 46.7407 30.3222 47.2444C29.1074 47.7481 27.8333 48 26.5 48ZM38.6333 36.2222L43.7 31.2C44.3815 30.5185 44.9074 29.7259 45.2778 28.8222C45.6481 27.9185 45.8333 26.9778 45.8333 26C45.8333 23.9556 45.1222 22.2222 43.7 20.8C42.2778 19.3778 40.5444 18.6667 38.5 18.6667C37.5222 18.6667 36.5815 18.8519 35.6778 19.2222C34.7741 19.5926 33.9815 20.1185 33.3 20.8L28.2778 25.8667L38.6333 36.2222ZM26.5 45.3333C27.4481 45.3333 28.3815 45.1481 29.3 44.7778C30.2185 44.4074 31.0185 43.8815 31.7 43.2L36.7222 38.1333L26.3667 27.7778L21.3 32.8C20.6185 33.4815 20.0926 34.2741 19.7222 35.1778C19.3519 36.0815 19.1667 37.0222 19.1667 38C19.1667 40.0444 19.8778 41.7778 21.3 43.2C22.7222 44.6222 24.4556 45.3333 26.5 45.3333Z" fill="#F95F80"/>
</svg>
