<svg width="65" height="64" viewBox="0 0 65 64" fill="none" xmlns="http://www.w3.org/2000/svg">
<rect x="0.5" width="64" height="64" rx="32" fill="#F95F80" fill-opacity="0.1"/>
<path d="M27.451 35.88C26.8437 35.88 26.3333 35.6703 25.92 35.251C25.5067 34.8316 25.3 34.3183 25.3 33.711C25.3 33.1037 25.5097 32.5933 25.929 32.18C26.3484 31.7667 26.8617 31.56 27.469 31.56C28.0763 31.56 28.5867 31.7697 29 32.189C29.4133 32.6084 29.62 33.1217 29.62 33.729C29.62 34.3363 29.4103 34.8467 28.991 35.26C28.5716 35.6733 28.0583 35.88 27.451 35.88ZM37.571 35.88C36.9637 35.88 36.4533 35.6703 36.04 35.251C35.6267 34.8316 35.42 34.3183 35.42 33.711C35.42 33.1037 35.6297 32.5933 36.049 32.18C36.4684 31.7667 36.9817 31.56 37.589 31.56C38.1963 31.56 38.7067 31.7697 39.12 32.189C39.5333 32.6084 39.74 33.1217 39.74 33.729C39.74 34.3363 39.5303 34.8467 39.111 35.26C38.6916 35.6733 38.1783 35.88 37.571 35.88ZM32.5 45.6C36.2967 45.6 39.5125 44.2807 42.1475 41.6421C44.7825 39.0035 46.1 35.7833 46.1 31.9814C46.1 31.3005 46.0467 30.6267 45.94 29.96C45.8333 29.2933 45.7 28.68 45.54 28.12C45.0067 28.2533 44.4298 28.3467 43.8095 28.4C43.1892 28.4533 42.5394 28.48 41.86 28.48C39.2703 28.48 36.8228 27.9467 34.5177 26.88C32.2126 25.8133 30.2467 24.2933 28.62 22.32C27.7133 24.48 26.4133 26.3667 24.72 27.98C23.0267 29.5933 21.0867 30.84 18.9 31.72V32C18.9 35.7967 20.2175 39.0125 22.8525 41.6475C25.4875 44.2825 28.7033 45.6 32.5 45.6ZM32.5 48C30.2867 48 28.2067 47.58 26.26 46.74C24.3133 45.9 22.62 44.76 21.18 43.32C19.74 41.88 18.6 40.1867 17.76 38.24C16.92 36.2933 16.5 34.2133 16.5 32C16.5 29.7867 16.92 27.7067 17.76 25.76C18.6 23.8133 19.74 22.12 21.18 20.68C22.62 19.24 24.3133 18.1 26.26 17.26C28.2067 16.42 30.2867 16 32.5 16C34.7133 16 36.7933 16.42 38.74 17.26C40.6867 18.1 42.38 19.24 43.82 20.68C45.26 22.12 46.4 23.8133 47.24 25.76C48.08 27.7067 48.5 29.7867 48.5 32C48.5 34.2133 48.08 36.2933 47.24 38.24C46.4 40.1867 45.26 41.88 43.82 43.32C42.38 44.76 40.6867 45.9 38.74 46.74C36.7933 47.58 34.7133 48 32.5 48ZM28.82 18.92C31.1667 21.6667 33.3333 23.5467 35.32 24.56C37.3067 25.5733 39.4867 26.08 41.86 26.08C42.5 26.08 43.0067 26.0667 43.38 26.04C43.7533 26.0133 44.1667 25.9333 44.62 25.8C43.42 23.64 41.7867 21.8667 39.72 20.48C37.6533 19.0933 35.2467 18.4 32.5 18.4C31.78 18.4 31.1 18.4533 30.46 18.56C29.82 18.6667 29.2733 18.7867 28.82 18.92ZM19.26 28.88C20.54 28.4 22 27.3133 23.64 25.62C25.28 23.9267 26.4467 21.88 27.14 19.48C24.82 20.52 23.0667 21.8467 21.88 23.46C20.6933 25.0733 19.82 26.88 19.26 28.88Z" fill="#F95F80"/>
</svg>
