<svg width="65" height="64" viewBox="0 0 65 64" fill="none" xmlns="http://www.w3.org/2000/svg">
<rect x="0.5" width="64" height="64" rx="32" fill="#F95F80" fill-opacity="0.1"/>
<path d="M23.0455 41.2727C22.4636 41.2727 21.9545 41.0545 21.5182 40.6182C21.0818 40.1818 20.8636 39.6727 20.8636 39.0909V20.1818C20.8636 19.6 21.0818 19.0909 21.5182 18.6545C21.9545 18.2182 22.4636 18 23.0455 18H31.9545L34.1364 20.1818H46.3182C46.9 20.1818 47.4091 20.4 47.8455 20.8364C48.2818 21.2727 48.5 21.7818 48.5 22.3636V39.0909C48.5 39.6727 48.2818 40.1818 47.8455 40.6182C47.4091 41.0545 46.9 41.2727 46.3182 41.2727H23.0455ZM23.0455 39.0909H46.3182V22.3636H33.2273L31.0455 20.1818H23.0455V39.0909ZM44.5 45.6364H18.6818C18.1 45.6364 17.5909 45.4182 17.1545 44.9818C16.7182 44.5455 16.5 44.0364 16.5 43.4545V22.3636H18.6818V43.4545H44.5V45.6364ZM27.1909 35.0545H42.1727L37.3727 28.6545L33.3727 33.9636L30.5 30.8364L27.1909 35.0545Z" fill="#F95F80"/>
</svg>
