<svg width="64" height="64" viewBox="0 0 64 64" fill="none" xmlns="http://www.w3.org/2000/svg">
<rect width="64" height="64" rx="32" fill="#F95F80" fill-opacity="0.1"/>
<path d="M36.643 23.4289H36.2573C36.9387 22.6696 37.3573 21.6704 37.3573 20.5718C37.3573 18.2082 35.4352 16.2861 33.0716 16.2861C30.708 16.2861 28.7859 18.2082 28.7859 20.5718C28.7859 21.6704 29.2045 22.6697 29.8859 23.4289H29.5001C27.5308 23.4289 25.9287 25.0311 25.9287 27.0004V37.0004C25.9287 37.3946 26.248 37.7146 26.643 37.7146H28.7859V51.2861C28.7859 51.6804 29.1052 52.0004 29.5002 52.0004H33.0716H33.7859C35.7552 52.0004 37.3573 50.3982 37.3573 48.4289V37.7146H39.5001C39.8951 37.7146 40.2144 37.3946 40.2144 37.0004V27.0004C40.2144 25.0311 38.6122 23.4289 36.643 23.4289ZM33.0715 17.7146C34.6472 17.7146 35.9286 18.9961 35.9286 20.5718C35.9286 22.1475 34.6472 23.4289 33.0715 23.4289C31.4958 23.4289 30.2144 22.1475 30.2144 20.5718C30.2144 18.9961 31.4958 17.7146 33.0715 17.7146ZM33.5094 24.8575L33.0715 26.1704L32.6336 24.8575H33.5094ZM38.7858 36.2861H37.3572V27.0004H35.9286V48.4289C35.9286 49.6104 34.9672 50.5718 33.7857 50.5718V37.7146H32.3571V50.5718H30.2143V27.0004H28.7857V36.2861H27.3571V27.0004C27.3571 25.8189 28.3185 24.8575 29.5 24.8575H31.1286L32.3943 28.6546C32.4914 28.9467 32.7636 29.1432 33.0714 29.1432C33.3792 29.1432 33.6514 28.9468 33.7485 28.6546L35.0142 24.8575H36.6428C37.8242 24.8575 38.7857 25.8189 38.7857 27.0004L38.7858 36.2861Z" fill="#F95F80" stroke="#F95F80"/>
<path d="M23.7858 12H16.643C16.248 12 15.9287 12.32 15.9287 12.7143V51.2857C15.9287 51.68 16.248 52 16.643 52H23.7859C24.1809 52 24.5002 51.68 24.5002 51.2857V12.7143C24.5001 12.32 24.1808 12 23.7858 12ZM23.0715 16.2857H21.6429V17.7143H23.0715V20.5714H20.2144V22H23.0715V24.8571H21.6429V26.2857H23.0715V29.1428H20.2144V30.5714H23.0715V33.4285H21.6429V34.8571H23.0715V37.7142H20.2144V39.1428H23.0715V42H21.6429V43.4286H23.0715V46.2857H20.2144V47.7143H23.0715V50.5714H17.3572V13.4286H23.0715V16.2857Z" fill="#F95F80" stroke="#F95F80"/>
<path d="M27.3573 13.4287H25.9287V14.8573H27.3573V13.4287Z" fill="#F95F80" stroke="#F95F80"/>
<path d="M30.2147 13.4287H28.7861V14.8573H30.2147V13.4287Z" fill="#F95F80" stroke="#F95F80"/>
<path d="M33.0712 13.4287H31.6426V14.8573H33.0712V13.4287Z" fill="#F95F80" stroke="#F95F80"/>
<path d="M35.9286 13.4287H34.5V14.8573H35.9286V13.4287Z" fill="#F95F80" stroke="#F95F80"/>
<path d="M38.786 13.4287H37.3574V14.8573H38.786V13.4287Z" fill="#F95F80" stroke="#F95F80"/>
<path d="M41.6434 13.4287H40.2148V14.8573H41.6434V13.4287Z" fill="#F95F80" stroke="#F95F80"/>
<path d="M39.4999 50.5713H38.0713V51.9999H39.4999V50.5713Z" fill="#F95F80" stroke="#F95F80"/>
<path d="M42.3573 50.5713H40.9287V51.9999H42.3573V50.5713Z" fill="#F95F80" stroke="#F95F80"/>
<path d="M45.2147 50.5713H43.7861V51.9999H45.2147V50.5713Z" fill="#F95F80" stroke="#F95F80"/>
<path d="M48.0712 50.5713H46.6426V51.9999H48.0712V50.5713Z" fill="#F95F80" stroke="#F95F80"/>
</svg>
