<svg width="65" height="64" viewBox="0 0 65 64" fill="none" xmlns="http://www.w3.org/2000/svg">
<rect x="0.5" width="64" height="64" rx="32" fill="#F95F80" fill-opacity="0.1"/>
<path d="M21.3 45.2V32.4H16.5L32.5 18L40.5 25.08V20.4H43.7V28.04L48.5 32.383H43.7V45.2H34.5V35.6H30.5V45.2H21.3ZM23.7 42.8H28.1V33.2H36.9V42.8H41.3V29.16L32.5 21.16L23.7 29.16V42.8ZM29.1 28.8H35.9C35.9 27.92 35.56 27.1933 34.88 26.62C34.2 26.0467 33.4067 25.76 32.5 25.76C31.5933 25.76 30.8 26.0446 30.12 26.6137C29.44 27.1828 29.1 27.9116 29.1 28.8Z" fill="#F95F80"/>
</svg>
