<svg width="61" height="60" viewBox="0 0 61 60" fill="none" xmlns="http://www.w3.org/2000/svg">
<rect x="0.5" width="60" height="60" rx="30" fill="#F95F80" fill-opacity="0.1"/>
<g clip-path="url(#clip0_60_19516)">
<path d="M47.4871 20.447C46.298 16.3593 42.9535 13.8324 40.5009 12.9405C37.6023 11.9 34.2579 12.8662 31.1364 15.6161C28.0149 12.8662 24.5961 11.8257 21.6975 12.9405C19.2449 13.8324 15.9004 16.3593 14.7113 20.447C13.8938 23.1969 13.8194 27.6562 18.0557 33.1559C19.0962 34.4937 20.434 36.2031 21.7718 37.9125V39.2503C20.8799 38.8787 19.9137 38.6558 18.8733 38.6558C15.6031 38.6558 13.0762 40.5881 13.0762 43.0407C13.0762 45.5677 15.6031 47.5 18.8733 47.5C22.1434 47.5 24.6703 45.5677 24.7447 43.1151C24.7447 42.7435 24.6703 42.4462 24.5961 42.0746V41.1827C24.7447 41.4057 24.9676 41.6287 25.1163 41.7773C29.65 47.0541 30.3189 47.4257 30.9878 47.4257H31.0621C31.1364 47.4257 31.1364 47.4257 31.2107 47.4257C31.954 47.4257 32.6228 47.0542 37.0078 41.7773C39.3861 38.9531 42.2103 35.4599 44.0683 33.0817C48.379 27.7305 48.3046 23.1969 47.4871 20.447ZM18.8733 44.6015C17.2382 44.6015 15.9748 43.7096 15.9748 43.0407C15.9748 42.3718 17.2382 41.5543 18.8733 41.5543C19.7652 41.5543 20.5827 41.7773 21.103 42.2232C21.3259 42.3718 21.7719 42.6691 21.7719 43.1151C21.7719 43.784 20.5084 44.6015 18.8733 44.6015ZM41.9129 31.4466C38.6428 35.6086 32.9944 42.2975 31.062 44.2299C29.7986 43.0407 27.1973 39.9936 24.5961 36.7977V28.6224C25.1163 29.2169 25.6365 29.7372 26.0082 30.1831C27.346 31.5953 27.8662 32.1898 28.0892 35.9059C28.1636 36.7234 28.8325 37.3923 29.65 37.318C30.4675 37.2437 31.1364 36.5748 31.0621 35.7572C30.8391 31.1493 29.8729 29.9602 28.2379 28.1765C27.2717 27.136 26.0826 25.8725 24.5961 22.9739C24.2988 22.3794 23.6299 22.0821 22.961 22.2307C22.2921 22.3793 21.8462 22.9739 21.8462 23.6428V33.3789C21.3259 32.71 20.8057 32.0411 20.2855 31.4466C17.5355 27.8791 16.5694 24.3861 17.4613 21.3388C18.3531 18.2917 20.8057 16.4336 22.6638 15.7647C24.7448 15.0215 27.4947 16.062 30.0216 18.6633C30.1702 18.8119 30.3932 18.8862 30.5419 18.9606C31.0622 19.1835 31.7311 19.1092 32.177 18.6633C34.7039 16.1363 37.4538 15.0215 39.5348 15.7647C41.3929 16.4336 43.8455 18.2917 44.7373 21.3388C45.6291 24.3861 44.6629 27.8791 41.9129 31.4466Z" fill="#F95F80"/>
</g>
<defs>
<clipPath id="clip0_60_19516">
<rect width="35" height="35" fill="white" transform="translate(13 12.5)"/>
</clipPath>
</defs>
</svg>
