<svg width="65" height="64" viewBox="0 0 65 64" fill="none" xmlns="http://www.w3.org/2000/svg">
<rect x="0.5" width="64" height="64" rx="32" fill="#F95F80" fill-opacity="0.1"/>
<path d="M46.5 48C42.8852 48 39.2926 47.1111 35.7222 45.3333C32.1519 43.5556 28.9444 41.2444 26.1 38.4C23.2556 35.5556 20.9444 32.3481 19.1667 28.7778C17.3889 25.2074 16.5 21.6148 16.5 18C16.5 17.4286 16.6905 16.9524 17.0714 16.5714C17.4524 16.1905 17.9286 16 18.5 16H24.7222C25.1255 16 25.4856 16.1407 25.8025 16.4222C26.1193 16.7037 26.3222 17.0815 26.4111 17.5556L27.6111 23.1556C27.6704 23.5704 27.663 23.9481 27.5889 24.2889C27.5148 24.6296 27.3593 24.9185 27.1222 25.1556L22.6778 29.6444C24.337 32.4 26.1963 34.8 28.2556 36.8444C30.3148 38.8889 32.6481 40.6222 35.2556 42.0444L39.4778 37.6889C39.7741 37.363 40.1148 37.1333 40.5 37C40.8852 36.8667 41.2704 36.8444 41.6556 36.9333L46.9444 38.0889C47.3981 38.1889 47.7708 38.4139 48.0625 38.7639C48.3542 39.1139 48.5 39.5259 48.5 40V46C48.5 46.5714 48.3095 47.0476 47.9286 47.4286C47.5476 47.8095 47.0714 48 46.5 48ZM21.3444 27.2L24.9444 23.5556L23.9222 18.6667H19.1667C19.1667 19.8222 19.3444 21.0889 19.7 22.4667C20.0556 23.8444 20.6037 25.4222 21.3444 27.2ZM37.7444 43.3333C38.9593 43.8963 40.2778 44.3556 41.7 44.7111C43.1222 45.0667 44.5 45.2741 45.8333 45.3333V40.5778L41.2556 39.6444L37.7444 43.3333Z" fill="#D4356E"/>
</svg>
