<svg width="64" height="64" viewBox="0 0 64 64" fill="none" xmlns="http://www.w3.org/2000/svg">
<rect width="64" height="64" rx="32" fill="#F95F80" fill-opacity="0.1"/>
<path d="M18.9164 34.1807C18.1168 34.1807 17.3652 34.5416 16.7998 35.1969C16.2345 35.8522 15.9232 36.7235 15.9232 37.6503C15.9232 38.2029 16.0347 38.7355 16.2439 39.2146L14.9478 40.7169C14.5825 41.1403 14.5825 41.8269 14.9478 42.2503C15.1305 42.462 15.3699 42.5679 15.6092 42.5679C15.8486 42.5679 16.088 42.462 16.2707 42.2503L17.5668 40.7479C17.9802 40.9905 18.4396 41.1198 18.9163 41.1198C19.7159 41.1198 20.4677 40.7589 21.033 40.1036C21.5984 39.4483 21.9098 38.577 21.9098 37.6503C21.9098 36.7235 21.5984 35.8522 21.033 35.1969C20.4677 34.5416 19.716 34.1807 18.9164 34.1807ZM19.7102 38.5702C19.4982 38.816 19.2163 38.9513 18.9165 38.9513C18.6167 38.9513 18.3349 38.816 18.1229 38.5702C17.9109 38.3245 17.7941 37.9978 17.7941 37.6503C17.7941 37.3028 17.9109 36.976 18.1229 36.7302C18.335 36.4845 18.6167 36.3492 18.9165 36.3492C19.2163 36.3492 19.4983 36.4845 19.7102 36.7303C19.9223 36.976 20.0391 37.3028 20.0391 37.6503C20.0391 37.9978 19.9222 38.3244 19.7102 38.5702Z" fill="#F95F80"/>
<path d="M46.1594 24.3714C45.6453 24.3714 45.1446 24.4396 44.662 24.5653L39.7794 18.7893C37.6264 16.2443 34.4347 15.3694 31.56 16.5041C28.6848 15.3695 25.4927 16.2442 23.3407 18.7895L18.4581 24.5653C17.9754 24.4395 17.4747 24.3713 16.9605 24.3713C13.1225 24.3714 10 28.0646 10 32.6041V46.9009C10 47.4997 10.4105 47.9851 10.9167 47.9851H23.0044C26.8425 47.9851 29.965 44.292 29.965 39.7524C29.965 39.1448 29.9075 38.5531 29.8013 37.9825L31.5602 35.9019L33.3186 37.9823C33.2124 38.5529 33.1549 39.1447 33.1549 39.7526C33.1549 44.2921 36.2774 47.9851 40.1155 47.9851H52.2033C52.7095 47.9851 53.12 47.4997 53.12 46.9009V32.6041C53.12 28.0646 49.9976 24.3714 46.1594 24.3714ZM38.483 20.3228L42.7816 25.4078C42.5078 25.5883 42.2453 25.7902 41.9957 26.0113L37.8345 21.0907C37.0001 20.1027 35.94 19.4891 34.7693 19.3164C33.4356 19.1176 32.105 19.5177 31.0224 20.4431C30.7937 20.6389 30.5775 20.8566 30.3802 21.0901C29.3859 22.2655 28.8382 23.831 28.8382 25.498C28.8382 27.0995 29.345 28.6065 30.2664 29.7652L29.6183 30.5318C27.5469 27.9489 27.3484 23.9293 29.1717 21.0828C29.1791 21.0723 29.1862 21.0617 29.1933 21.0508C29.3587 20.7948 29.54 20.55 29.7321 20.3228C30.3501 19.5918 31.0753 19.0347 31.8874 18.667C34.17 17.6347 36.7589 18.2847 38.483 20.3228ZM35.8221 33.277L34.798 32.0654C36.8281 29.5644 37.4916 26.0076 36.7059 22.8224L40.6841 27.5267C39.9221 28.6736 39.4116 30.0647 39.252 31.5829C37.9682 31.7715 36.7919 32.3756 35.8221 33.277ZM31.5601 28.2284C30.9861 27.4805 30.6718 26.5186 30.6718 25.4981C30.6718 24.4776 30.986 23.516 31.5601 22.7684C32.1342 23.5159 32.4484 24.4775 32.4484 25.4981C32.4484 26.5187 32.1341 27.4804 31.5601 28.2284ZM28.322 32.0651L27.2976 33.2768C26.3278 32.3755 25.1515 31.7715 23.8679 31.5829C23.7083 30.0648 23.1978 28.6737 22.4359 27.5269L26.4141 22.8217C25.6284 26.0071 26.292 29.5643 28.322 32.0651ZM24.6372 20.3229C25.8128 18.9324 27.3913 18.1886 29.0008 18.1838C28.8059 18.3746 28.6168 18.5755 28.4359 18.7895C28.2743 18.9805 28.1194 19.1818 27.9715 19.3898C26.9515 19.6287 26.0289 20.2107 25.285 21.0904L21.1242 26.0116C20.8746 25.7905 20.6122 25.5886 20.3384 25.4081L24.6372 20.3229ZM23.0044 45.8166H11.8334V32.6041C11.8334 29.2603 14.1335 26.54 16.9607 26.54C19.7877 26.54 22.0878 29.2604 22.0878 32.6041C22.0878 33.203 22.4983 33.6884 23.0045 33.6884C25.8317 33.6884 28.1317 36.4087 28.1317 39.7526C28.1316 43.0963 25.8316 45.8166 23.0044 45.8166ZM28.5788 34.8282L32.74 29.9065C33.7343 28.7305 34.2819 27.1649 34.2819 25.498C34.2819 24.0623 33.8748 22.7028 33.127 21.6022C33.4592 21.4861 33.8067 21.4302 34.1587 21.4369C35.7811 24.3083 35.4796 28.1997 33.3879 30.6729L29.0891 35.7582C28.9365 35.4341 28.7658 35.1236 28.5788 34.8282ZM32.8566 34.3683L33.5044 33.602L34.541 34.8285C34.3542 35.1236 34.1836 35.434 34.031 35.7578L32.8566 34.3683ZM51.2866 45.8166H40.1155C37.2884 45.8166 34.9883 43.0963 34.9883 39.7524C34.9883 36.4086 37.2884 33.6884 40.1155 33.6884C40.6217 33.6884 41.0322 33.203 41.0322 32.6041C41.0322 29.2603 43.3323 26.54 46.1594 26.54C48.9866 26.54 51.2867 29.2604 51.2867 32.6041V45.8166H51.2866Z" fill="#F95F80"/>
<path d="M47.7564 39.2139C47.9656 38.7348 48.0771 38.2022 48.0771 37.6496C48.0771 36.7228 47.7658 35.8516 47.2004 35.1963C46.0331 33.8434 44.1342 33.8434 42.9671 35.1963C41.8 36.5491 41.8 38.7502 42.9671 40.1029C43.5506 40.7793 44.3173 41.1174 45.0838 41.1174C45.5469 41.1174 46.0097 40.9931 46.4326 40.7462L47.7295 42.2495C47.9122 42.4612 48.1516 42.5671 48.391 42.5671C48.6303 42.5671 48.8697 42.4612 49.0524 42.2495C49.4177 41.8261 49.4177 41.1395 49.0524 40.7161L47.7564 39.2139ZM44.2901 38.5696C43.8524 38.0623 43.8524 37.2368 44.2901 36.7296C44.7276 36.2223 45.44 36.2223 45.8776 36.7296C46.0896 36.9753 46.2064 37.3021 46.2064 37.6496C46.2064 37.9971 46.0896 38.3239 45.8776 38.5696C45.44 39.0769 44.7276 39.0769 44.2901 38.5696Z" fill="#F95F80"/>
</svg>
