<svg width="65" height="64" viewBox="0 0 65 64" fill="none" xmlns="http://www.w3.org/2000/svg">
<rect x="0.5" width="64" height="64" rx="32" fill="#F95F80" fill-opacity="0.1"/>
<path d="M16.5 46.6V34.24L23.1 31.32V26.08L31.3 21.88V18.6H28.1V16.2H31.3V13H33.7V16.2H36.9V18.6H33.7V21.88L41.9 26.08V31.32L48.5 34.24V46.6H34.5V40.2C34.5 39.6333 34.309 39.1583 33.927 38.775C33.545 38.3917 33.0717 38.2 32.507 38.2C31.9423 38.2 31.4667 38.3917 31.08 38.775C30.6933 39.1583 30.5 39.6333 30.5 40.2V46.6H16.5ZM18.9 44.2H28.1V40.12C28.1 38.8933 28.5282 37.84 29.3847 36.96C30.2412 36.08 31.2812 35.64 32.5047 35.64C33.7282 35.64 34.7667 36.08 35.62 36.96C36.4733 37.84 36.9 38.8933 36.9 40.12V44.2H46.1V35.64L39.5 32.72V27.4L32.5 23.76L25.5 27.4V32.72L18.9 35.64V44.2ZM32.5024 32.8C33.1141 32.8 33.6333 32.5859 34.06 32.1576C34.4867 31.7294 34.7 31.2094 34.7 30.5976C34.7 29.9859 34.4859 29.4667 34.0576 29.04C33.6294 28.6133 33.1094 28.4 32.4976 28.4C31.8859 28.4 31.3667 28.6141 30.94 29.0424C30.5133 29.4706 30.3 29.9906 30.3 30.6024C30.3 31.2141 30.5141 31.7333 30.9424 32.16C31.3706 32.5867 31.8906 32.8 32.5024 32.8Z" fill="#F95F80"/>
</svg>
