<svg width="60" height="60" viewBox="0 0 60 60" fill="none" xmlns="http://www.w3.org/2000/svg">
<g clip-path="url(#clip0_39_3036)">
<rect width="60" height="60" rx="30" fill="#F95F80" fill-opacity="0.1"/>
<path d="M25.8446 16.4404C24.6202 16.4404 23.4695 16.9169 22.6036 17.7827C21.9073 18.479 21.4625 19.3601 21.3156 20.3156C20.3601 20.4629 19.479 20.9073 18.7827 21.6036C17.9172 22.4694 17.4404 23.6202 17.4404 24.8446C17.4404 27.3715 19.4965 29.4275 22.0234 29.4275H29.6658C30.0865 29.4275 30.4275 29.0865 30.4275 28.6658V21.0234C30.4275 18.4961 28.3715 16.4404 25.8446 16.4404ZM28.9041 27.9041H22.0234C20.3363 27.9041 18.9639 26.5317 18.9639 24.8446C18.9639 24.0271 19.2822 23.2587 19.8598 22.6807C20.4378 22.1031 21.2058 21.7851 22.023 21.7851H22.0233C22.2253 21.7851 22.4191 21.7048 22.5619 21.562C22.7047 21.4192 22.785 21.225 22.785 21.023C22.785 20.2059 23.103 19.4379 23.681 18.8599C24.2586 18.2819 25.027 17.9639 25.8445 17.9639C27.5316 17.9639 28.9041 19.3363 28.9041 21.0234V27.9041H28.9041Z" fill="#FD808A"/>
<path d="M46.1071 41.0133L36.059 30.9659C37.2559 29.0248 37.8986 26.7869 37.8986 24.4493C37.8986 21.1239 36.6036 17.9978 34.2522 15.6464C31.9008 13.2947 28.7747 12 25.4493 12C22.1238 12 18.9978 13.2947 16.6464 15.6464C14.2951 17.9977 13 21.1238 13 24.4493C13 27.7744 14.2951 30.9008 16.6464 33.2522C18.9978 35.6035 22.1238 36.8986 25.4493 36.8986C27.3037 36.8986 29.0961 36.4947 30.7266 35.7308L41.0577 46.0623C41.754 46.7582 42.6682 47.1059 43.5824 47.1059C44.4966 47.1059 45.4112 46.7582 46.1071 46.0623C47.4989 44.6705 47.4988 42.4054 46.1071 41.0133ZM17.7235 32.175C15.66 30.1115 14.5234 27.3674 14.5234 24.4492C14.5234 21.5307 15.6601 18.7869 17.7235 16.7235C19.7874 14.6596 22.5311 13.5234 25.4493 13.5234C28.3674 13.5234 31.1112 14.6596 33.175 16.7235C35.2386 18.787 36.3752 21.5307 36.3752 24.4492C36.3752 26.6871 35.7046 28.8209 34.4623 30.6255C34.4545 30.6367 34.4459 30.6478 34.4385 30.6597C34.0665 31.1953 33.6462 31.7038 33.1749 32.175C31.1111 34.2385 28.3674 35.3751 25.4492 35.3751C22.5311 35.3751 19.7874 34.2385 17.7235 32.175ZM45.03 44.9851C44.2319 45.7825 42.9331 45.7833 42.1349 44.9851L32.1147 34.9645C32.8786 34.4784 33.5965 33.9082 34.2522 33.2521C34.5787 32.9256 34.8823 32.583 35.1675 32.2286L45.03 42.0903C45.8278 42.8881 45.8278 44.1869 45.03 44.9851Z" fill="#FD808A"/>
</g>
<defs>
<clipPath id="clip0_39_3036">
<rect width="60" height="60" rx="30" fill="white"/>
</clipPath>
</defs>
</svg>
