<svg width="65" height="64" viewBox="0 0 65 64" fill="none" xmlns="http://www.w3.org/2000/svg">
<rect x="0.5" width="64" height="64" rx="32" fill="#F95F80" fill-opacity="0.1"/>
<path d="M33.5 17.7133L32.484 18.8173C32.7608 19.0716 33.1231 19.2128 33.499 19.2128C33.875 19.2128 34.2372 19.0716 34.514 18.8173L33.5 17.7133ZM30.682 27.8933C29.302 26.8873 27.83 25.6633 26.718 24.3733C25.57 23.0433 25 21.8653 25 20.9313H22C22 22.9653 23.156 24.8393 24.446 26.3333C25.772 27.8693 27.448 29.2473 28.916 30.3173L30.682 27.8933ZM25 20.9313C25 18.8133 26.04 17.6053 27.292 17.1853C28.596 16.7453 30.54 17.0293 32.484 18.8173L34.514 16.6093C31.96 14.2613 28.908 13.4773 26.336 14.3413C23.71 15.2253 22 17.6933 22 20.9313H25ZM38.084 30.3173C39.552 29.2493 41.228 27.8693 42.554 26.3333C43.844 24.8393 45 22.9653 45 20.9313H42C42 21.8653 41.432 23.0433 40.282 24.3733C39.17 25.6633 37.698 26.8873 36.318 27.8933L38.084 30.3173ZM45 20.9313C45 17.6933 43.29 15.2253 40.666 14.3413C38.094 13.4773 35.04 14.2613 32.486 16.6093L34.514 18.8173C36.46 17.0293 38.406 16.7453 39.71 17.1853C40.96 17.6053 42 18.8133 42 20.9313H45ZM28.916 30.3173C30.426 31.4173 31.624 32.3533 33.5 32.3533V29.3533C32.77 29.3533 32.37 29.1233 30.682 27.8933L28.916 30.3173ZM36.316 27.8933C34.63 29.1233 34.23 29.3533 33.5 29.3533V32.3533C35.376 32.3533 36.574 31.4193 38.084 30.3173L36.318 27.8933H36.316Z" fill="#F95F80"/>
<path d="M17 47.7761H21.52C23.54 47.7761 25.586 47.988 27.552 48.392C31.062 49.1131 34.6735 49.1931 38.212 48.628M36.352 42.034C36.592 42.006 36.822 41.974 37.042 41.94C38.864 41.65 40.394 40.6741 41.794 39.6161L45.41 36.886C46.0551 36.4168 46.8323 36.164 47.63 36.164C48.4277 36.164 49.2049 36.4168 49.85 36.886C50.996 37.752 51.348 39.178 50.622 40.342C49.776 41.698 48.584 43.4321 47.44 44.4921M36.352 42.034C36.2787 42.0425 36.2054 42.0505 36.132 42.058M36.352 42.034C36.6721 41.9475 36.9656 41.7825 37.206 41.5541C37.5074 41.2933 37.7535 40.9749 37.9298 40.6175C38.1061 40.2601 38.209 39.871 38.2325 39.4732C38.256 39.0754 38.1996 38.6769 38.0665 38.3013C37.9335 37.9256 37.7266 37.5804 37.458 37.286C37.1974 36.9967 36.8938 36.7492 36.558 36.552C30.964 33.214 22.258 35.756 17 39.486M36.352 42.034C36.2797 42.0498 36.206 42.0578 36.132 42.058M36.132 42.058C34.9258 42.1793 33.7107 42.1819 32.504 42.0661" stroke="#F95F80" stroke-width="2.5" stroke-linecap="round"/>
</svg>
