<svg width="65" height="64" viewBox="0 0 65 64" fill="none" xmlns="http://www.w3.org/2000/svg">
<rect x="0.5" width="64" height="64" rx="32" fill="#F95F80" fill-opacity="0.1"/>
<path d="M16.5 45.2V41.2H40.9V45.2H16.5ZM42.7 45.2V41.2H44.7V45.2H42.7ZM46.5 45.2V41.2H48.5V45.2H46.5ZM42.7 39.4V37.16C42.7 36.04 42.3733 35.16 41.72 34.52C41.0667 33.88 40.2733 33.56 39.34 33.56H36.5C35.06 33.56 33.8533 33.0067 32.88 31.9C31.9067 30.7933 31.42 29.52 31.42 28.08C31.42 26.64 31.9067 25.4333 32.88 24.46C33.8533 23.4867 35.06 23 36.5 23V25C35.5667 25 34.82 25.28 34.26 25.84C33.7 26.4 33.42 27.1467 33.42 28.08C33.42 29.0133 33.7 29.8267 34.26 30.52C34.82 31.2133 35.5667 31.56 36.5 31.56H39.34C40.78 31.56 42.0333 32.0533 43.1 33.04C44.1667 34.0267 44.7 35.24 44.7 36.68V39.4H42.7ZM46.5 39.4V35.4C46.5 33.4 45.8333 31.76 44.5 30.48C43.1667 29.2 41.5 28.56 39.5 28.56V26.56C40.4067 26.56 41.1467 26.24 41.72 25.6C42.2933 24.96 42.58 24.1867 42.58 23.28C42.58 22.3733 42.2933 21.6 41.72 20.96C41.1467 20.32 40.4067 20 39.5 20V18C40.94 18 42.1467 18.52 43.12 19.56C44.0933 20.6 44.58 21.84 44.58 23.28C44.58 24.16 44.4133 24.92 44.08 25.56C43.7467 26.2 43.3133 26.7467 42.78 27.2C44.3267 27.7333 45.6667 28.7333 46.8 30.2C47.9333 31.6667 48.5 33.4 48.5 35.4V39.4H46.5Z" fill="#F95F80"/>
</svg>
