<svg width="44" height="44" viewBox="0 0 44 44" fill="none" xmlns="http://www.w3.org/2000/svg">
<path d="M29.941 17.7911L28.7696 15.067L25.9364 13.8138L28.7696 12.588L29.941 10L31.1124 12.588L33.9455 13.8138L31.1124 15.067L29.941 17.7911ZM29.941 34L28.7696 31.3848L25.9364 30.1589L28.7696 28.933L29.941 26.1816L31.1124 28.933L33.9455 30.1589L31.1124 31.3848L29.941 34ZM17.9818 29.8048L15.4756 24.4381L10 21.9864L15.4756 19.5346L17.9818 14.1952L20.5153 19.5346L25.9637 21.9864L20.5153 24.4381L17.9818 29.8048ZM17.9818 25.773L19.2894 23.1578L21.9591 21.9864L19.2894 20.815L17.9818 18.1998L16.7015 20.815L14.0045 21.9864L16.7015 23.1578L17.9818 25.773Z" fill="#F95F80"/>
</svg>
