<svg width="361" height="62" viewBox="0 0 361 62" fill="none" xmlns="http://www.w3.org/2000/svg">
<path d="M29.941 26.7911L28.7696 24.067L25.9364 22.8138L28.7696 21.588L29.941 19L31.1124 21.588L33.9455 22.8138L31.1124 24.067L29.941 26.7911ZM29.941 43L28.7696 40.3848L25.9364 39.1589L28.7696 37.933L29.941 35.1816L31.1124 37.933L33.9455 39.1589L31.1124 40.3848L29.941 43ZM17.9818 38.8048L15.4756 33.4381L10 30.9864L15.4756 28.5346L17.9818 23.1952L20.5153 28.5346L25.9637 30.9864L20.5153 33.4381L17.9818 38.8048ZM17.9818 34.773L19.2894 32.1578L21.9591 30.9864L19.2894 29.815L17.9818 27.1998L16.7015 29.815L14.0045 30.9864L16.7015 32.1578L17.9818 34.773Z" fill="#F95F80"/>
<rect x="44" width="317" height="62" rx="31" fill="#9D9D9D" fill-opacity="0.05"/>
<path d="M85.5016 17.004L81.9316 27H80.6716L77.1016 17.004H78.4176L80.6716 23.416C80.7742 23.6867 80.8629 23.948 80.9376 24.2C81.0122 24.452 81.0776 24.6947 81.1336 24.928C81.1989 25.152 81.2549 25.376 81.3016 25.6C81.3482 25.376 81.3996 25.1473 81.4556 24.914C81.5209 24.6807 81.5909 24.438 81.6656 24.186C81.7496 23.934 81.8382 23.668 81.9316 23.388L84.1716 17.004H85.5016ZM87.9181 19.496V27H86.6861V19.496H87.9181ZM87.3161 16.682C87.5028 16.682 87.6661 16.7473 87.8061 16.878C87.9554 16.9993 88.0301 17.1953 88.0301 17.466C88.0301 17.7273 87.9554 17.9233 87.8061 18.054C87.6661 18.1847 87.5028 18.25 87.3161 18.25C87.1108 18.25 86.9381 18.1847 86.7981 18.054C86.6581 17.9233 86.5881 17.7273 86.5881 17.466C86.5881 17.1953 86.6581 16.9993 86.7981 16.878C86.9381 16.7473 87.1108 16.682 87.3161 16.682ZM92.9555 27.14C92.0221 27.14 91.2755 26.818 90.7155 26.174C90.1555 25.5207 89.8755 24.55 89.8755 23.262C89.8755 21.974 90.1555 21.0033 90.7155 20.35C91.2848 19.6873 92.0361 19.356 92.9695 19.356C93.3615 19.356 93.7021 19.4073 93.9915 19.51C94.2808 19.6033 94.5328 19.734 94.7475 19.902C94.9621 20.07 95.1441 20.2567 95.2935 20.462H95.3775C95.3681 20.3407 95.3495 20.1633 95.3215 19.93C95.3028 19.6873 95.2935 19.496 95.2935 19.356V16.36H96.5255V27H95.5315L95.3495 25.992H95.2935C95.1441 26.2067 94.9621 26.4027 94.7475 26.58C94.5328 26.748 94.2761 26.8833 93.9775 26.986C93.6881 27.0887 93.3475 27.14 92.9555 27.14ZM93.1515 26.118C93.9448 26.118 94.5001 25.9033 94.8175 25.474C95.1441 25.0353 95.3075 24.3773 95.3075 23.5V23.276C95.3075 22.3427 95.1535 21.6287 94.8455 21.134C94.5375 20.63 93.9681 20.378 93.1375 20.378C92.4748 20.378 91.9755 20.644 91.6395 21.176C91.3128 21.6987 91.1495 22.4033 91.1495 23.29C91.1495 24.186 91.3128 24.8813 91.6395 25.376C91.9755 25.8707 92.4795 26.118 93.1515 26.118ZM101.807 19.356C102.451 19.356 103.001 19.496 103.459 19.776C103.925 20.056 104.28 20.4527 104.523 20.966C104.775 21.47 104.901 22.0627 104.901 22.744V23.486H99.7628C99.7814 24.3353 99.9961 24.984 100.407 25.432C100.827 25.8707 101.41 26.09 102.157 26.09C102.633 26.09 103.053 26.048 103.417 25.964C103.79 25.8707 104.173 25.74 104.565 25.572V26.65C104.182 26.818 103.804 26.9393 103.431 27.014C103.057 27.098 102.614 27.14 102.101 27.14C101.391 27.14 100.761 26.9953 100.211 26.706C99.6694 26.4167 99.2448 25.9873 98.9368 25.418C98.6381 24.8393 98.4888 24.1347 98.4888 23.304C98.4888 22.4827 98.6241 21.778 98.8948 21.19C99.1748 20.602 99.5621 20.1493 100.057 19.832C100.561 19.5147 101.144 19.356 101.807 19.356ZM101.793 20.364C101.205 20.364 100.738 20.5553 100.393 20.938C100.057 21.3113 99.8561 21.834 99.7908 22.506H103.613C103.613 22.0767 103.547 21.7033 103.417 21.386C103.286 21.0687 103.085 20.8213 102.815 20.644C102.553 20.4573 102.213 20.364 101.793 20.364ZM113.335 23.234C113.335 23.8593 113.251 24.4147 113.083 24.9C112.924 25.376 112.691 25.782 112.383 26.118C112.084 26.454 111.716 26.7107 111.277 26.888C110.848 27.056 110.367 27.14 109.835 27.14C109.34 27.14 108.883 27.056 108.463 26.888C108.043 26.7107 107.679 26.454 107.371 26.118C107.063 25.782 106.82 25.376 106.643 24.9C106.475 24.4147 106.391 23.8593 106.391 23.234C106.391 22.4033 106.531 21.7033 106.811 21.134C107.091 20.5553 107.492 20.1167 108.015 19.818C108.538 19.51 109.158 19.356 109.877 19.356C110.558 19.356 111.156 19.51 111.669 19.818C112.192 20.1167 112.598 20.5553 112.887 21.134C113.186 21.7033 113.335 22.4033 113.335 23.234ZM107.665 23.234C107.665 23.822 107.74 24.3353 107.889 24.774C108.048 25.2033 108.29 25.5347 108.617 25.768C108.944 26.0013 109.359 26.118 109.863 26.118C110.367 26.118 110.782 26.0013 111.109 25.768C111.436 25.5347 111.674 25.2033 111.823 24.774C111.982 24.3353 112.061 23.822 112.061 23.234C112.061 22.6367 111.982 22.128 111.823 21.708C111.664 21.288 111.422 20.966 111.095 20.742C110.778 20.5087 110.362 20.392 109.849 20.392C109.084 20.392 108.528 20.644 108.183 21.148C107.838 21.652 107.665 22.3473 107.665 23.234ZM120.174 24.928C120.174 25.4133 120.052 25.8193 119.81 26.146C119.567 26.4727 119.222 26.72 118.774 26.888C118.326 27.056 117.794 27.14 117.178 27.14C116.655 27.14 116.202 27.098 115.82 27.014C115.446 26.93 115.115 26.8133 114.826 26.664V25.544C115.124 25.6933 115.484 25.8333 115.904 25.964C116.333 26.0853 116.767 26.146 117.206 26.146C117.831 26.146 118.284 26.048 118.564 25.852C118.844 25.6467 118.984 25.376 118.984 25.04C118.984 24.8533 118.932 24.6853 118.83 24.536C118.727 24.3867 118.54 24.2373 118.27 24.088C118.008 23.9387 117.63 23.7707 117.136 23.584C116.65 23.3973 116.235 23.2107 115.89 23.024C115.544 22.8373 115.278 22.6133 115.092 22.352C114.905 22.0907 114.812 21.7547 114.812 21.344C114.812 20.7093 115.068 20.2193 115.582 19.874C116.104 19.5287 116.786 19.356 117.626 19.356C118.083 19.356 118.508 19.4027 118.9 19.496C119.301 19.58 119.674 19.7013 120.02 19.86L119.6 20.84C119.394 20.7467 119.175 20.6673 118.942 20.602C118.718 20.5273 118.489 20.4713 118.256 20.434C118.022 20.3873 117.784 20.364 117.542 20.364C117.038 20.364 116.65 20.448 116.38 20.616C116.118 20.7747 115.988 20.994 115.988 21.274C115.988 21.4793 116.048 21.6567 116.17 21.806C116.291 21.946 116.492 22.086 116.772 22.226C117.061 22.3567 117.444 22.5153 117.92 22.702C118.396 22.8793 118.802 23.0613 119.138 23.248C119.474 23.4347 119.73 23.6633 119.908 23.934C120.085 24.1953 120.174 24.5267 120.174 24.928ZM126.856 18.95C126.856 19.2673 126.846 19.566 126.828 19.846C126.818 20.1167 126.804 20.3313 126.786 20.49H126.856C127.07 20.1727 127.364 19.9067 127.738 19.692C128.111 19.4773 128.592 19.37 129.18 19.37C130.113 19.37 130.86 19.6967 131.42 20.35C131.989 20.994 132.274 21.96 132.274 23.248C132.274 24.1067 132.143 24.8253 131.882 25.404C131.63 25.9827 131.27 26.4167 130.804 26.706C130.337 26.9953 129.796 27.14 129.18 27.14C128.592 27.14 128.111 27.0327 127.738 26.818C127.364 26.6033 127.07 26.3467 126.856 26.048H126.758L126.506 27H125.624V16.36H126.856V18.95ZM128.97 20.392C128.438 20.392 128.018 20.4947 127.71 20.7C127.402 20.896 127.182 21.204 127.052 21.624C126.921 22.0347 126.856 22.562 126.856 23.206V23.262C126.856 24.186 127.005 24.8953 127.304 25.39C127.612 25.8753 128.176 26.118 128.998 26.118C129.67 26.118 130.169 25.8707 130.496 25.376C130.832 24.8813 131 24.1673 131 23.234C131 22.2913 130.832 21.582 130.496 21.106C130.169 20.63 129.66 20.392 128.97 20.392ZM137.737 19.356C137.877 19.356 138.026 19.3653 138.185 19.384C138.353 19.3933 138.498 19.412 138.619 19.44L138.465 20.574C138.344 20.546 138.208 20.5227 138.059 20.504C137.919 20.4853 137.784 20.476 137.653 20.476C137.364 20.476 137.088 20.5367 136.827 20.658C136.566 20.7793 136.332 20.952 136.127 21.176C135.922 21.3907 135.758 21.652 135.637 21.96C135.525 22.268 135.469 22.6133 135.469 22.996V27H134.237V19.496H135.245L135.385 20.868H135.441C135.6 20.588 135.791 20.336 136.015 20.112C136.239 19.8787 136.496 19.6967 136.785 19.566C137.074 19.426 137.392 19.356 137.737 19.356ZM141.252 19.496V27H140.02V19.496H141.252ZM140.65 16.682C140.837 16.682 141 16.7473 141.14 16.878C141.289 16.9993 141.364 17.1953 141.364 17.466C141.364 17.7273 141.289 17.9233 141.14 18.054C141 18.1847 140.837 18.25 140.65 18.25C140.445 18.25 140.272 18.1847 140.132 18.054C139.992 17.9233 139.922 17.7273 139.922 17.466C139.922 17.1953 139.992 16.9993 140.132 16.878C140.272 16.7473 140.445 16.682 140.65 16.682ZM147.241 19.356C148.137 19.356 148.814 19.5753 149.271 20.014C149.729 20.4433 149.957 21.1433 149.957 22.114V27H148.739V22.198C148.739 21.5913 148.604 21.1387 148.333 20.84C148.063 20.5413 147.638 20.392 147.059 20.392C146.229 20.392 145.655 20.6253 145.337 21.092C145.02 21.5587 144.861 22.2307 144.861 23.108V27H143.629V19.496H144.623L144.805 20.518H144.875C145.043 20.2567 145.249 20.042 145.491 19.874C145.743 19.6967 146.019 19.566 146.317 19.482C146.616 19.398 146.924 19.356 147.241 19.356ZM154.944 19.356C155.438 19.356 155.882 19.4493 156.274 19.636C156.675 19.8227 157.016 20.1073 157.296 20.49H157.366L157.534 19.496H158.514V27.126C158.514 27.8353 158.392 28.428 158.15 28.904C157.907 29.3893 157.538 29.7533 157.044 29.996C156.549 30.2387 155.919 30.36 155.154 30.36C154.612 30.36 154.113 30.318 153.656 30.234C153.208 30.1593 152.806 30.0427 152.452 29.884V28.75C152.694 28.8713 152.96 28.974 153.25 29.058C153.539 29.1513 153.852 29.2213 154.188 29.268C154.524 29.3147 154.869 29.338 155.224 29.338C155.868 29.338 156.372 29.1467 156.736 28.764C157.109 28.3907 157.296 27.8773 157.296 27.224V26.93C157.296 26.818 157.3 26.6593 157.31 26.454C157.319 26.2393 157.328 26.09 157.338 26.006H157.282C157.02 26.3887 156.694 26.6733 156.302 26.86C155.919 27.0467 155.471 27.14 154.958 27.14C153.987 27.14 153.226 26.7993 152.676 26.118C152.134 25.4367 151.864 24.4847 151.864 23.262C151.864 22.4593 151.985 21.7687 152.228 21.19C152.48 20.602 152.834 20.1493 153.292 19.832C153.749 19.5147 154.3 19.356 154.944 19.356ZM155.112 20.392C154.692 20.392 154.332 20.504 154.034 20.728C153.744 20.952 153.52 21.2787 153.362 21.708C153.212 22.1373 153.138 22.66 153.138 23.276C153.138 24.2 153.306 24.9093 153.642 25.404C153.987 25.8893 154.486 26.132 155.14 26.132C155.522 26.132 155.849 26.0853 156.12 25.992C156.39 25.8893 156.614 25.7353 156.792 25.53C156.969 25.3153 157.1 25.0447 157.184 24.718C157.268 24.3913 157.31 24.004 157.31 23.556V23.262C157.31 22.5807 157.23 22.03 157.072 21.61C156.922 21.19 156.684 20.882 156.358 20.686C156.031 20.49 155.616 20.392 155.112 20.392ZM163.358 19.496H164.674L166.298 23.766C166.391 24.018 166.475 24.2607 166.55 24.494C166.634 24.7273 166.708 24.956 166.774 25.18C166.839 25.3947 166.89 25.6047 166.928 25.81H166.984C167.04 25.5767 167.128 25.2733 167.25 24.9C167.371 24.5173 167.497 24.1347 167.628 23.752L169.154 19.496H170.484L167.25 28.036C167.072 28.5027 166.862 28.9087 166.62 29.254C166.386 29.6087 166.097 29.8793 165.752 30.066C165.416 30.262 165.005 30.36 164.52 30.36C164.296 30.36 164.1 30.346 163.932 30.318C163.764 30.2993 163.619 30.276 163.498 30.248V29.268C163.6 29.2867 163.722 29.3053 163.862 29.324C164.011 29.3427 164.165 29.352 164.324 29.352C164.613 29.352 164.86 29.296 165.066 29.184C165.28 29.0813 165.462 28.9273 165.612 28.722C165.761 28.526 165.887 28.2927 165.99 28.022L166.382 27.028L163.358 19.496ZM178.194 23.234C178.194 23.8593 178.11 24.4147 177.942 24.9C177.784 25.376 177.55 25.782 177.242 26.118C176.944 26.454 176.575 26.7107 176.136 26.888C175.707 27.056 175.226 27.14 174.694 27.14C174.2 27.14 173.742 27.056 173.322 26.888C172.902 26.7107 172.538 26.454 172.23 26.118C171.922 25.782 171.68 25.376 171.502 24.9C171.334 24.4147 171.25 23.8593 171.25 23.234C171.25 22.4033 171.39 21.7033 171.67 21.134C171.95 20.5553 172.352 20.1167 172.874 19.818C173.397 19.51 174.018 19.356 174.736 19.356C175.418 19.356 176.015 19.51 176.528 19.818C177.051 20.1167 177.457 20.5553 177.746 21.134C178.045 21.7033 178.194 22.4033 178.194 23.234ZM172.524 23.234C172.524 23.822 172.599 24.3353 172.748 24.774C172.907 25.2033 173.15 25.5347 173.476 25.768C173.803 26.0013 174.218 26.118 174.722 26.118C175.226 26.118 175.642 26.0013 175.968 25.768C176.295 25.5347 176.533 25.2033 176.682 24.774C176.841 24.3353 176.92 23.822 176.92 23.234C176.92 22.6367 176.841 22.128 176.682 21.708C176.524 21.288 176.281 20.966 175.954 20.742C175.637 20.5087 175.222 20.392 174.708 20.392C173.943 20.392 173.388 20.644 173.042 21.148C172.697 21.652 172.524 22.3473 172.524 23.234ZM186.419 19.496V27H185.411L185.229 26.006H185.173C185.014 26.2673 184.809 26.482 184.557 26.65C184.305 26.818 184.03 26.9393 183.731 27.014C183.432 27.098 183.12 27.14 182.793 27.14C182.196 27.14 181.692 27.0467 181.281 26.86C180.88 26.664 180.576 26.3653 180.371 25.964C180.166 25.5627 180.063 25.0447 180.063 24.41V19.496H181.309V24.326C181.309 24.9233 181.444 25.3713 181.715 25.67C181.986 25.9687 182.406 26.118 182.975 26.118C183.535 26.118 183.974 26.0153 184.291 25.81C184.618 25.5953 184.846 25.2873 184.977 24.886C185.117 24.4753 185.187 23.9807 185.187 23.402V19.496H186.419ZM192.301 19.356C192.441 19.356 192.591 19.3653 192.749 19.384C192.917 19.3933 193.062 19.412 193.183 19.44L193.029 20.574C192.908 20.546 192.773 20.5227 192.623 20.504C192.483 20.4853 192.348 20.476 192.217 20.476C191.928 20.476 191.653 20.5367 191.391 20.658C191.13 20.7793 190.897 20.952 190.691 21.176C190.486 21.3907 190.323 21.652 190.201 21.96C190.089 22.268 190.033 22.6133 190.033 22.996V27H188.801V19.496H189.809L189.949 20.868H190.005C190.164 20.588 190.355 20.336 190.579 20.112C190.803 19.8787 191.06 19.6967 191.349 19.566C191.639 19.426 191.956 19.356 192.301 19.356ZM201.791 19.356C202.715 19.356 203.457 19.678 204.017 20.322C204.587 20.966 204.871 21.9367 204.871 23.234C204.871 24.0833 204.741 24.802 204.479 25.39C204.227 25.9687 203.868 26.4073 203.401 26.706C202.944 26.9953 202.403 27.14 201.777 27.14C201.395 27.14 201.054 27.0887 200.755 26.986C200.457 26.8833 200.2 26.7527 199.985 26.594C199.78 26.426 199.603 26.244 199.453 26.048H199.369C199.388 26.2067 199.407 26.4073 199.425 26.65C199.444 26.8927 199.453 27.1027 199.453 27.28V30.36H198.221V19.496H199.229L199.397 20.518H199.453C199.603 20.3033 199.78 20.1073 199.985 19.93C200.2 19.7527 200.452 19.6127 200.741 19.51C201.04 19.4073 201.39 19.356 201.791 19.356ZM201.567 20.392C201.063 20.392 200.657 20.49 200.349 20.686C200.041 20.8727 199.817 21.1573 199.677 21.54C199.537 21.9227 199.463 22.408 199.453 22.996V23.234C199.453 23.85 199.519 24.3727 199.649 24.802C199.78 25.2313 199.999 25.558 200.307 25.782C200.625 26.006 201.054 26.118 201.595 26.118C202.053 26.118 202.426 25.992 202.715 25.74C203.014 25.488 203.233 25.1473 203.373 24.718C203.523 24.2793 203.597 23.78 203.597 23.22C203.597 22.3613 203.429 21.6753 203.093 21.162C202.767 20.6487 202.258 20.392 201.567 20.392ZM210.335 19.356C210.475 19.356 210.624 19.3653 210.783 19.384C210.951 19.3933 211.095 19.412 211.217 19.44L211.063 20.574C210.941 20.546 210.806 20.5227 210.657 20.504C210.517 20.4853 210.381 20.476 210.251 20.476C209.961 20.476 209.686 20.5367 209.425 20.658C209.163 20.7793 208.93 20.952 208.725 21.176C208.519 21.3907 208.356 21.652 208.235 21.96C208.123 22.268 208.067 22.6133 208.067 22.996V27H206.835V19.496H207.843L207.983 20.868H208.039C208.197 20.588 208.389 20.336 208.613 20.112C208.837 19.8787 209.093 19.6967 209.383 19.566C209.672 19.426 209.989 19.356 210.335 19.356ZM218.868 23.234C218.868 23.8593 218.784 24.4147 218.616 24.9C218.458 25.376 218.224 25.782 217.916 26.118C217.618 26.454 217.249 26.7107 216.81 26.888C216.381 27.056 215.9 27.14 215.368 27.14C214.874 27.14 214.416 27.056 213.996 26.888C213.576 26.7107 213.212 26.454 212.904 26.118C212.596 25.782 212.354 25.376 212.176 24.9C212.008 24.4147 211.924 23.8593 211.924 23.234C211.924 22.4033 212.064 21.7033 212.344 21.134C212.624 20.5553 213.026 20.1167 213.548 19.818C214.071 19.51 214.692 19.356 215.41 19.356C216.092 19.356 216.689 19.51 217.202 19.818C217.725 20.1167 218.131 20.5553 218.42 21.134C218.719 21.7033 218.868 22.4033 218.868 23.234ZM213.198 23.234C213.198 23.822 213.273 24.3353 213.422 24.774C213.581 25.2033 213.824 25.5347 214.15 25.768C214.477 26.0013 214.892 26.118 215.396 26.118C215.9 26.118 216.316 26.0013 216.642 25.768C216.969 25.5347 217.207 25.2033 217.356 24.774C217.515 24.3353 217.594 23.822 217.594 23.234C217.594 22.6367 217.515 22.128 217.356 21.708C217.198 21.288 216.955 20.966 216.628 20.742C216.311 20.5087 215.896 20.392 215.382 20.392C214.617 20.392 214.062 20.644 213.716 21.148C213.371 21.652 213.198 22.3473 213.198 23.234ZM224.279 20.448H222.389V27H221.157V20.448H219.841V19.874L221.157 19.454V19.02C221.157 18.376 221.25 17.8533 221.437 17.452C221.633 17.0507 221.913 16.7567 222.277 16.57C222.641 16.3833 223.08 16.29 223.593 16.29C223.892 16.29 224.162 16.318 224.405 16.374C224.657 16.4207 224.872 16.4767 225.049 16.542L224.727 17.508C224.578 17.4613 224.405 17.4147 224.209 17.368C224.013 17.3213 223.812 17.298 223.607 17.298C223.196 17.298 222.888 17.438 222.683 17.718C222.487 17.9887 222.389 18.418 222.389 19.006V19.496H224.279V20.448ZM226.869 19.496V27H225.637V19.496H226.869ZM226.267 16.682C226.454 16.682 226.617 16.7473 226.757 16.878C226.906 16.9993 226.981 17.1953 226.981 17.466C226.981 17.7273 226.906 17.9233 226.757 18.054C226.617 18.1847 226.454 18.25 226.267 18.25C226.062 18.25 225.889 18.1847 225.749 18.054C225.609 17.9233 225.539 17.7273 225.539 17.466C225.539 17.1953 225.609 16.9993 225.749 16.878C225.889 16.7473 226.062 16.682 226.267 16.682ZM230.475 27H229.243V16.36H230.475V27ZM235.75 19.356C236.394 19.356 236.945 19.496 237.402 19.776C237.869 20.056 238.223 20.4527 238.466 20.966C238.718 21.47 238.844 22.0627 238.844 22.744V23.486H233.706C233.725 24.3353 233.939 24.984 234.35 25.432C234.77 25.8707 235.353 26.09 236.1 26.09C236.576 26.09 236.996 26.048 237.36 25.964C237.733 25.8707 238.116 25.74 238.508 25.572V26.65C238.125 26.818 237.747 26.9393 237.374 27.014C237.001 27.098 236.557 27.14 236.044 27.14C235.335 27.14 234.705 26.9953 234.154 26.706C233.613 26.4167 233.188 25.9873 232.88 25.418C232.581 24.8393 232.432 24.1347 232.432 23.304C232.432 22.4827 232.567 21.778 232.838 21.19C233.118 20.602 233.505 20.1493 234 19.832C234.504 19.5147 235.087 19.356 235.75 19.356ZM235.736 20.364C235.148 20.364 234.681 20.5553 234.336 20.938C234 21.3113 233.799 21.834 233.734 22.506H237.556C237.556 22.0767 237.491 21.7033 237.36 21.386C237.229 21.0687 237.029 20.8213 236.758 20.644C236.497 20.4573 236.156 20.364 235.736 20.364ZM246.897 26.132C247.084 26.132 247.275 26.118 247.471 26.09C247.667 26.0527 247.826 26.0153 247.947 25.978V26.916C247.817 26.9813 247.63 27.0327 247.387 27.07C247.145 27.1167 246.911 27.14 246.687 27.14C246.295 27.14 245.931 27.0747 245.595 26.944C245.269 26.804 245.003 26.566 244.797 26.23C244.592 25.894 244.489 25.4227 244.489 24.816V20.448H243.425V19.86L244.503 19.37L244.993 17.774H245.721V19.496H247.891V20.448H245.721V24.788C245.721 25.2453 245.829 25.586 246.043 25.81C246.267 26.0247 246.552 26.132 246.897 26.132ZM255.974 23.234C255.974 23.8593 255.89 24.4147 255.722 24.9C255.563 25.376 255.33 25.782 255.022 26.118C254.723 26.454 254.354 26.7107 253.916 26.888C253.486 27.056 253.006 27.14 252.474 27.14C251.979 27.14 251.522 27.056 251.102 26.888C250.682 26.7107 250.318 26.454 250.01 26.118C249.702 25.782 249.459 25.376 249.282 24.9C249.114 24.4147 249.03 23.8593 249.03 23.234C249.03 22.4033 249.17 21.7033 249.45 21.134C249.73 20.5553 250.131 20.1167 250.654 19.818C251.176 19.51 251.797 19.356 252.516 19.356C253.197 19.356 253.794 19.51 254.308 19.818C254.83 20.1167 255.236 20.5553 255.526 21.134C255.824 21.7033 255.974 22.4033 255.974 23.234ZM250.304 23.234C250.304 23.822 250.378 24.3353 250.528 24.774C250.686 25.2033 250.929 25.5347 251.256 25.768C251.582 26.0013 251.998 26.118 252.502 26.118C253.006 26.118 253.421 26.0013 253.748 25.768C254.074 25.5347 254.312 25.2033 254.462 24.774C254.62 24.3353 254.7 23.822 254.7 23.234C254.7 22.6367 254.62 22.128 254.462 21.708C254.303 21.288 254.06 20.966 253.734 20.742C253.416 20.5087 253.001 20.392 252.488 20.392C251.722 20.392 251.167 20.644 250.822 21.148C250.476 21.652 250.304 22.3473 250.304 23.234ZM262.795 27H261.563V16.36H262.795V27ZM266.404 19.496V27H265.172V19.496H266.404ZM265.802 16.682C265.989 16.682 266.152 16.7473 266.292 16.878C266.442 16.9993 266.516 17.1953 266.516 17.466C266.516 17.7273 266.442 17.9233 266.292 18.054C266.152 18.1847 265.989 18.25 265.802 18.25C265.597 18.25 265.424 18.1847 265.284 18.054C265.144 17.9233 265.074 17.7273 265.074 17.466C265.074 17.1953 265.144 16.9993 265.284 16.878C265.424 16.7473 265.597 16.682 265.802 16.682ZM272.24 20.448H270.35V27H269.118V20.448H267.802V19.874L269.118 19.454V19.02C269.118 18.376 269.211 17.8533 269.398 17.452C269.594 17.0507 269.874 16.7567 270.238 16.57C270.602 16.3833 271.04 16.29 271.554 16.29C271.852 16.29 272.123 16.318 272.366 16.374C272.618 16.4207 272.832 16.4767 273.01 16.542L272.688 17.508C272.538 17.4613 272.366 17.4147 272.17 17.368C271.974 17.3213 271.773 17.298 271.568 17.298C271.157 17.298 270.849 17.438 270.644 17.718C270.448 17.9887 270.35 18.418 270.35 19.006V19.496H272.24V20.448ZM276.492 19.356C277.136 19.356 277.687 19.496 278.144 19.776C278.611 20.056 278.966 20.4527 279.208 20.966C279.46 21.47 279.586 22.0627 279.586 22.744V23.486H274.448C274.467 24.3353 274.682 24.984 275.092 25.432C275.512 25.8707 276.096 26.09 276.842 26.09C277.318 26.09 277.738 26.048 278.102 25.964C278.476 25.8707 278.858 25.74 279.25 25.572V26.65C278.868 26.818 278.49 26.9393 278.116 27.014C277.743 27.098 277.3 27.14 276.786 27.14C276.077 27.14 275.447 26.9953 274.896 26.706C274.355 26.4167 273.93 25.9873 273.622 25.418C273.324 24.8393 273.174 24.1347 273.174 23.304C273.174 22.4827 273.31 21.778 273.58 21.19C273.86 20.602 274.248 20.1493 274.742 19.832C275.246 19.5147 275.83 19.356 276.492 19.356ZM276.478 20.364C275.89 20.364 275.424 20.5553 275.078 20.938C274.742 21.3113 274.542 21.834 274.476 22.506H278.298C278.298 22.0767 278.233 21.7033 278.102 21.386C277.972 21.0687 277.771 20.8213 277.5 20.644C277.239 20.4573 276.898 20.364 276.478 20.364ZM282.995 25.53C282.911 25.8567 282.803 26.2113 282.673 26.594C282.542 26.9767 282.397 27.3547 282.239 27.728C282.089 28.1107 281.94 28.47 281.791 28.806H280.881C280.974 28.4513 281.063 28.0687 281.147 27.658C281.24 27.2567 281.324 26.86 281.399 26.468C281.473 26.0667 281.534 25.7027 281.581 25.376H282.897L282.995 25.53ZM291.539 19.356C292.034 19.356 292.477 19.4493 292.869 19.636C293.271 19.8227 293.611 20.1073 293.891 20.49H293.961L294.129 19.496H295.109V27.126C295.109 27.8353 294.988 28.428 294.745 28.904C294.503 29.3893 294.134 29.7533 293.639 29.996C293.145 30.2387 292.515 30.36 291.749 30.36C291.208 30.36 290.709 30.318 290.251 30.234C289.803 30.1593 289.402 30.0427 289.047 29.884V28.75C289.29 28.8713 289.556 28.974 289.845 29.058C290.135 29.1513 290.447 29.2213 290.783 29.268C291.119 29.3147 291.465 29.338 291.819 29.338C292.463 29.338 292.967 29.1467 293.331 28.764C293.705 28.3907 293.891 27.8773 293.891 27.224V26.93C293.891 26.818 293.896 26.6593 293.905 26.454C293.915 26.2393 293.924 26.09 293.933 26.006H293.877C293.616 26.3887 293.289 26.6733 292.897 26.86C292.515 27.0467 292.067 27.14 291.553 27.14C290.583 27.14 289.822 26.7993 289.271 26.118C288.73 25.4367 288.459 24.4847 288.459 23.262C288.459 22.4593 288.581 21.7687 288.823 21.19C289.075 20.602 289.43 20.1493 289.887 19.832C290.345 19.5147 290.895 19.356 291.539 19.356ZM291.707 20.392C291.287 20.392 290.928 20.504 290.629 20.728C290.34 20.952 290.116 21.2787 289.957 21.708C289.808 22.1373 289.733 22.66 289.733 23.276C289.733 24.2 289.901 24.9093 290.237 25.404C290.583 25.8893 291.082 26.132 291.735 26.132C292.118 26.132 292.445 26.0853 292.715 25.992C292.986 25.8893 293.21 25.7353 293.387 25.53C293.565 25.3153 293.695 25.0447 293.779 24.718C293.863 24.3913 293.905 24.004 293.905 23.556V23.262C293.905 22.5807 293.826 22.03 293.667 21.61C293.518 21.19 293.28 20.882 292.953 20.686C292.627 20.49 292.211 20.392 291.707 20.392ZM298.725 19.496V27H297.493V19.496H298.725ZM298.123 16.682C298.309 16.682 298.473 16.7473 298.613 16.878C298.762 16.9993 298.837 17.1953 298.837 17.466C298.837 17.7273 298.762 17.9233 298.613 18.054C298.473 18.1847 298.309 18.25 298.123 18.25C297.917 18.25 297.745 18.1847 297.605 18.054C297.465 17.9233 297.395 17.7273 297.395 17.466C297.395 17.1953 297.465 16.9993 297.605 16.878C297.745 16.7473 297.917 16.682 298.123 16.682ZM302.754 27L299.912 19.496H301.228L302.824 23.92C302.899 24.1253 302.978 24.354 303.062 24.606C303.146 24.858 303.221 25.1007 303.286 25.334C303.351 25.558 303.398 25.7493 303.426 25.908H303.482C303.519 25.7493 303.571 25.5533 303.636 25.32C303.711 25.0867 303.79 24.844 303.874 24.592C303.967 24.34 304.047 24.116 304.112 23.92L305.708 19.496H307.024L304.168 27H302.754ZM309.443 19.496V27H308.211V19.496H309.443ZM308.841 16.682C309.028 16.682 309.191 16.7473 309.331 16.878C309.481 16.9993 309.555 17.1953 309.555 17.466C309.555 17.7273 309.481 17.9233 309.331 18.054C309.191 18.1847 309.028 18.25 308.841 18.25C308.636 18.25 308.463 18.1847 308.323 18.054C308.183 17.9233 308.113 17.7273 308.113 17.466C308.113 17.1953 308.183 16.9993 308.323 16.878C308.463 16.7473 308.636 16.682 308.841 16.682ZM315.433 19.356C316.329 19.356 317.006 19.5753 317.463 20.014C317.92 20.4433 318.149 21.1433 318.149 22.114V27H316.931V22.198C316.931 21.5913 316.796 21.1387 316.525 20.84C316.254 20.5413 315.83 20.392 315.251 20.392C314.42 20.392 313.846 20.6253 313.529 21.092C313.212 21.5587 313.053 22.2307 313.053 23.108V27H311.821V19.496H312.815L312.997 20.518H313.067C313.235 20.2567 313.44 20.042 313.683 19.874C313.935 19.6967 314.21 19.566 314.509 19.482C314.808 19.398 315.116 19.356 315.433 19.356ZM323.135 19.356C323.63 19.356 324.073 19.4493 324.465 19.636C324.866 19.8227 325.207 20.1073 325.487 20.49H325.557L325.725 19.496H326.705V27.126C326.705 27.8353 326.584 28.428 326.341 28.904C326.098 29.3893 325.73 29.7533 325.235 29.996C324.74 30.2387 324.11 30.36 323.345 30.36C322.804 30.36 322.304 30.318 321.847 30.234C321.399 30.1593 320.998 30.0427 320.643 29.884V28.75C320.886 28.8713 321.152 28.974 321.441 29.058C321.73 29.1513 322.043 29.2213 322.379 29.268C322.715 29.3147 323.06 29.338 323.415 29.338C324.059 29.338 324.563 29.1467 324.927 28.764C325.3 28.3907 325.487 27.8773 325.487 27.224V26.93C325.487 26.818 325.492 26.6593 325.501 26.454C325.51 26.2393 325.52 26.09 325.529 26.006H325.473C325.212 26.3887 324.885 26.6733 324.493 26.86C324.11 27.0467 323.662 27.14 323.149 27.14C322.178 27.14 321.418 26.7993 320.867 26.118C320.326 25.4367 320.055 24.4847 320.055 23.262C320.055 22.4593 320.176 21.7687 320.419 21.19C320.671 20.602 321.026 20.1493 321.483 19.832C321.94 19.5147 322.491 19.356 323.135 19.356ZM323.303 20.392C322.883 20.392 322.524 20.504 322.225 20.728C321.936 20.952 321.712 21.2787 321.553 21.708C321.404 22.1373 321.329 22.66 321.329 23.276C321.329 24.2 321.497 24.9093 321.833 25.404C322.178 25.8893 322.678 26.132 323.331 26.132C323.714 26.132 324.04 26.0853 324.311 25.992C324.582 25.8893 324.806 25.7353 324.983 25.53C325.16 25.3153 325.291 25.0447 325.375 24.718C325.459 24.3913 325.501 24.004 325.501 23.556V23.262C325.501 22.5807 325.422 22.03 325.263 21.61C325.114 21.19 324.876 20.882 324.549 20.686C324.222 20.49 323.807 20.392 323.303 20.392ZM83.9201 42.234C83.9201 42.8593 83.8361 43.4147 83.6681 43.9C83.5094 44.376 83.2761 44.782 82.9681 45.118C82.6694 45.454 82.3007 45.7107 81.8621 45.888C81.4327 46.056 80.9521 46.14 80.4201 46.14C79.9254 46.14 79.4681 46.056 79.0481 45.888C78.6281 45.7107 78.2641 45.454 77.9561 45.118C77.6481 44.782 77.4054 44.376 77.2281 43.9C77.0601 43.4147 76.9761 42.8593 76.9761 42.234C76.9761 41.4033 77.1161 40.7033 77.3961 40.134C77.6761 39.5553 78.0774 39.1167 78.6001 38.818C79.1227 38.51 79.7434 38.356 80.4621 38.356C81.1434 38.356 81.7407 38.51 82.2541 38.818C82.7767 39.1167 83.1827 39.5553 83.4721 40.134C83.7707 40.7033 83.9201 41.4033 83.9201 42.234ZM78.2501 42.234C78.2501 42.822 78.3247 43.3353 78.4741 43.774C78.6327 44.2033 78.8754 44.5347 79.2021 44.768C79.5287 45.0013 79.9441 45.118 80.4481 45.118C80.9521 45.118 81.3674 45.0013 81.6941 44.768C82.0207 44.5347 82.2587 44.2033 82.4081 43.774C82.5667 43.3353 82.6461 42.822 82.6461 42.234C82.6461 41.6367 82.5667 41.128 82.4081 40.708C82.2494 40.288 82.0067 39.966 81.6801 39.742C81.3627 39.5087 80.9474 39.392 80.4341 39.392C79.6687 39.392 79.1134 39.644 78.7681 40.148C78.4227 40.652 78.2501 41.3473 78.2501 42.234ZM88.3786 45.132C88.5653 45.132 88.7566 45.118 88.9526 45.09C89.1486 45.0527 89.3073 45.0153 89.4286 44.978V45.916C89.298 45.9813 89.1113 46.0327 88.8686 46.07C88.626 46.1167 88.3926 46.14 88.1686 46.14C87.7766 46.14 87.4126 46.0747 87.0766 45.944C86.75 45.804 86.484 45.566 86.2786 45.23C86.0733 44.894 85.9706 44.4227 85.9706 43.816V39.448H84.9066V38.86L85.9846 38.37L86.4746 36.774H87.2026V38.496H89.3726V39.448H87.2026V43.788C87.2026 44.2453 87.31 44.586 87.5246 44.81C87.7486 45.0247 88.0333 45.132 88.3786 45.132ZM92.1632 38.482C92.1632 38.6593 92.1539 38.8413 92.1352 39.028C92.1259 39.2147 92.1119 39.3827 92.0932 39.532H92.1772C92.3359 39.2707 92.5365 39.056 92.7792 38.888C93.0219 38.72 93.2925 38.594 93.5912 38.51C93.8899 38.4167 94.1979 38.37 94.5152 38.37C95.1219 38.37 95.6259 38.468 96.0272 38.664C96.4379 38.8507 96.7459 39.1447 96.9512 39.546C97.1565 39.9473 97.2592 40.47 97.2592 41.114V46H96.0412V41.198C96.0412 40.5913 95.9059 40.1387 95.6352 39.84C95.3645 39.5413 94.9399 39.392 94.3612 39.392C93.8012 39.392 93.3625 39.4993 93.0452 39.714C92.7279 39.9193 92.4992 40.2273 92.3592 40.638C92.2285 41.0393 92.1632 41.534 92.1632 42.122V46H90.9312V35.36H92.1632V38.482ZM102.484 38.356C103.128 38.356 103.678 38.496 104.136 38.776C104.602 39.056 104.957 39.4527 105.2 39.966C105.452 40.47 105.578 41.0627 105.578 41.744V42.486H100.44C100.458 43.3353 100.673 43.984 101.084 44.432C101.504 44.8707 102.087 45.09 102.834 45.09C103.31 45.09 103.73 45.048 104.094 44.964C104.467 44.8707 104.85 44.74 105.242 44.572V45.65C104.859 45.818 104.481 45.9393 104.108 46.014C103.734 46.098 103.291 46.14 102.778 46.14C102.068 46.14 101.438 45.9953 100.888 45.706C100.346 45.4167 99.9215 44.9873 99.6135 44.418C99.3148 43.8393 99.1655 43.1347 99.1655 42.304C99.1655 41.4827 99.3008 40.778 99.5715 40.19C99.8515 39.602 100.239 39.1493 100.734 38.832C101.238 38.5147 101.821 38.356 102.484 38.356ZM102.47 39.364C101.882 39.364 101.415 39.5553 101.07 39.938C100.734 40.3113 100.533 40.834 100.468 41.506H104.29C104.29 41.0767 104.224 40.7033 104.094 40.386C103.963 40.0687 103.762 39.8213 103.492 39.644C103.23 39.4573 102.89 39.364 102.47 39.364ZM110.988 38.356C111.128 38.356 111.277 38.3653 111.436 38.384C111.604 38.3933 111.749 38.412 111.87 38.44L111.716 39.574C111.595 39.546 111.459 39.5227 111.31 39.504C111.17 39.4853 111.035 39.476 110.904 39.476C110.615 39.476 110.339 39.5367 110.078 39.658C109.817 39.7793 109.583 39.952 109.378 40.176C109.173 40.3907 109.009 40.652 108.888 40.96C108.776 41.268 108.72 41.6133 108.72 41.996V46H107.488V38.496H108.496L108.636 39.868H108.692C108.851 39.588 109.042 39.336 109.266 39.112C109.49 38.8787 109.747 38.6967 110.036 38.566C110.325 38.426 110.643 38.356 110.988 38.356ZM118.157 43.928C118.157 44.4133 118.036 44.8193 117.793 45.146C117.55 45.4727 117.205 45.72 116.757 45.888C116.309 46.056 115.777 46.14 115.161 46.14C114.638 46.14 114.186 46.098 113.803 46.014C113.43 45.93 113.098 45.8133 112.809 45.664V44.544C113.108 44.6933 113.467 44.8333 113.887 44.964C114.316 45.0853 114.75 45.146 115.189 45.146C115.814 45.146 116.267 45.048 116.547 44.852C116.827 44.6467 116.967 44.376 116.967 44.04C116.967 43.8533 116.916 43.6853 116.813 43.536C116.71 43.3867 116.524 43.2373 116.253 43.088C115.992 42.9387 115.614 42.7707 115.119 42.584C114.634 42.3973 114.218 42.2107 113.873 42.024C113.528 41.8373 113.262 41.6133 113.075 41.352C112.888 41.0907 112.795 40.7547 112.795 40.344C112.795 39.7093 113.052 39.2193 113.565 38.874C114.088 38.5287 114.769 38.356 115.609 38.356C116.066 38.356 116.491 38.4027 116.883 38.496C117.284 38.58 117.658 38.7013 118.003 38.86L117.583 39.84C117.378 39.7467 117.158 39.6673 116.925 39.602C116.701 39.5273 116.472 39.4713 116.239 39.434C116.006 39.3873 115.768 39.364 115.525 39.364C115.021 39.364 114.634 39.448 114.363 39.616C114.102 39.7747 113.971 39.994 113.971 40.274C113.971 40.4793 114.032 40.6567 114.153 40.806C114.274 40.946 114.475 41.086 114.755 41.226C115.044 41.3567 115.427 41.5153 115.903 41.702C116.379 41.8793 116.785 42.0613 117.121 42.248C117.457 42.4347 117.714 42.6633 117.891 42.934C118.068 43.1953 118.157 43.5267 118.157 43.928ZM126.449 38.37C127.364 38.37 128.04 38.5707 128.479 38.972C128.918 39.3733 129.137 40.0127 129.137 40.89V46H128.241L128.003 44.936H127.947C127.732 45.2067 127.508 45.4353 127.275 45.622C127.051 45.7993 126.79 45.93 126.491 46.014C126.202 46.098 125.847 46.14 125.427 46.14C124.979 46.14 124.573 46.0607 124.209 45.902C123.854 45.7433 123.574 45.5007 123.369 45.174C123.164 44.838 123.061 44.418 123.061 43.914C123.061 43.1673 123.355 42.5933 123.943 42.192C124.531 41.7813 125.436 41.5573 126.659 41.52L127.933 41.478V41.03C127.933 40.4047 127.798 39.9707 127.527 39.728C127.256 39.4853 126.874 39.364 126.379 39.364C125.987 39.364 125.614 39.4247 125.259 39.546C124.904 39.658 124.573 39.7887 124.265 39.938L123.887 39.014C124.214 38.8367 124.601 38.6873 125.049 38.566C125.497 38.4353 125.964 38.37 126.449 38.37ZM126.813 42.374C125.88 42.4113 125.231 42.5607 124.867 42.822C124.512 43.0833 124.335 43.452 124.335 43.928C124.335 44.348 124.461 44.656 124.713 44.852C124.974 45.048 125.306 45.146 125.707 45.146C126.342 45.146 126.869 44.9733 127.289 44.628C127.709 44.2733 127.919 43.732 127.919 43.004V42.332L126.813 42.374ZM136.323 37.95C136.323 38.2673 136.314 38.566 136.295 38.846C136.286 39.1167 136.272 39.3313 136.253 39.49H136.323C136.538 39.1727 136.832 38.9067 137.205 38.692C137.579 38.4773 138.059 38.37 138.647 38.37C139.581 38.37 140.327 38.6967 140.887 39.35C141.457 39.994 141.741 40.96 141.741 42.248C141.741 43.1067 141.611 43.8253 141.349 44.404C141.097 44.9827 140.738 45.4167 140.271 45.706C139.805 45.9953 139.263 46.14 138.647 46.14C138.059 46.14 137.579 46.0327 137.205 45.818C136.832 45.6033 136.538 45.3467 136.323 45.048H136.225L135.973 46H135.091V35.36H136.323V37.95ZM138.437 39.392C137.905 39.392 137.485 39.4947 137.177 39.7C136.869 39.896 136.65 40.204 136.519 40.624C136.389 41.0347 136.323 41.562 136.323 42.206V42.262C136.323 43.186 136.473 43.8953 136.771 44.39C137.079 44.8753 137.644 45.118 138.465 45.118C139.137 45.118 139.637 44.8707 139.963 44.376C140.299 43.8813 140.467 43.1673 140.467 42.234C140.467 41.2913 140.299 40.582 139.963 40.106C139.637 39.63 139.128 39.392 138.437 39.392ZM146.603 38.356C147.247 38.356 147.797 38.496 148.255 38.776C148.721 39.056 149.076 39.4527 149.319 39.966C149.571 40.47 149.697 41.0627 149.697 41.744V42.486H144.559C144.577 43.3353 144.792 43.984 145.203 44.432C145.623 44.8707 146.206 45.09 146.953 45.09C147.429 45.09 147.849 45.048 148.213 44.964C148.586 44.8707 148.969 44.74 149.361 44.572V45.65C148.978 45.818 148.6 45.9393 148.227 46.014C147.853 46.098 147.41 46.14 146.897 46.14C146.187 46.14 145.557 45.9953 145.007 45.706C144.465 45.4167 144.041 44.9873 143.733 44.418C143.434 43.8393 143.285 43.1347 143.285 42.304C143.285 41.4827 143.42 40.778 143.691 40.19C143.971 39.602 144.358 39.1493 144.853 38.832C145.357 38.5147 145.94 38.356 146.603 38.356ZM146.589 39.364C146.001 39.364 145.534 39.5553 145.189 39.938C144.853 40.3113 144.652 40.834 144.587 41.506H148.409C148.409 41.0767 148.343 40.7033 148.213 40.386C148.082 40.0687 147.881 39.8213 147.611 39.644C147.349 39.4573 147.009 39.364 146.589 39.364ZM154.113 45.132C154.3 45.132 154.491 45.118 154.687 45.09C154.883 45.0527 155.042 45.0153 155.163 44.978V45.916C155.032 45.9813 154.846 46.0327 154.603 46.07C154.36 46.1167 154.127 46.14 153.903 46.14C153.511 46.14 153.147 46.0747 152.811 45.944C152.484 45.804 152.218 45.566 152.013 45.23C151.808 44.894 151.705 44.4227 151.705 43.816V39.448H150.641V38.86L151.719 38.37L152.209 36.774H152.937V38.496H155.107V39.448H152.937V43.788C152.937 44.2453 153.044 44.586 153.259 44.81C153.483 45.0247 153.768 45.132 154.113 45.132ZM159.172 45.132C159.358 45.132 159.55 45.118 159.746 45.09C159.942 45.0527 160.1 45.0153 160.222 44.978V45.916C160.091 45.9813 159.904 46.0327 159.662 46.07C159.419 46.1167 159.186 46.14 158.962 46.14C158.57 46.14 158.206 46.0747 157.87 45.944C157.543 45.804 157.277 45.566 157.072 45.23C156.866 44.894 156.764 44.4227 156.764 43.816V39.448H155.7V38.86L156.778 38.37L157.268 36.774H157.996V38.496H160.166V39.448H157.996V43.788C157.996 44.2453 158.103 44.586 158.318 44.81C158.542 45.0247 158.826 45.132 159.172 45.132ZM164.622 38.356C165.266 38.356 165.817 38.496 166.274 38.776C166.741 39.056 167.096 39.4527 167.338 39.966C167.59 40.47 167.716 41.0627 167.716 41.744V42.486H162.578C162.597 43.3353 162.812 43.984 163.222 44.432C163.642 44.8707 164.226 45.09 164.972 45.09C165.448 45.09 165.868 45.048 166.232 44.964C166.606 44.8707 166.988 44.74 167.38 44.572V45.65C166.998 45.818 166.62 45.9393 166.246 46.014C165.873 46.098 165.43 46.14 164.916 46.14C164.207 46.14 163.577 45.9953 163.026 45.706C162.485 45.4167 162.06 44.9873 161.752 44.418C161.454 43.8393 161.304 43.1347 161.304 42.304C161.304 41.4827 161.44 40.778 161.71 40.19C161.99 39.602 162.378 39.1493 162.872 38.832C163.376 38.5147 163.96 38.356 164.622 38.356ZM164.608 39.364C164.02 39.364 163.554 39.5553 163.208 39.938C162.872 40.3113 162.672 40.834 162.606 41.506H166.428C166.428 41.0767 166.363 40.7033 166.232 40.386C166.102 40.0687 165.901 39.8213 165.63 39.644C165.369 39.4573 165.028 39.364 164.608 39.364ZM173.127 38.356C173.267 38.356 173.416 38.3653 173.575 38.384C173.743 38.3933 173.887 38.412 174.009 38.44L173.855 39.574C173.733 39.546 173.598 39.5227 173.449 39.504C173.309 39.4853 173.173 39.476 173.043 39.476C172.753 39.476 172.478 39.5367 172.217 39.658C171.955 39.7793 171.722 39.952 171.517 40.176C171.311 40.3907 171.148 40.652 171.027 40.96C170.915 41.268 170.859 41.6133 170.859 41.996V46H169.627V38.496H170.635L170.775 39.868H170.831C170.989 39.588 171.181 39.336 171.405 39.112C171.629 38.8787 171.885 38.6967 172.175 38.566C172.464 38.426 172.781 38.356 173.127 38.356ZM183.932 43.928C183.932 44.4133 183.811 44.8193 183.568 45.146C183.326 45.4727 182.98 45.72 182.532 45.888C182.084 46.056 181.552 46.14 180.936 46.14C180.414 46.14 179.961 46.098 179.578 46.014C179.205 45.93 178.874 45.8133 178.584 45.664V44.544C178.883 44.6933 179.242 44.8333 179.662 44.964C180.092 45.0853 180.526 45.146 180.964 45.146C181.59 45.146 182.042 45.048 182.322 44.852C182.602 44.6467 182.742 44.376 182.742 44.04C182.742 43.8533 182.691 43.6853 182.588 43.536C182.486 43.3867 182.299 43.2373 182.028 43.088C181.767 42.9387 181.389 42.7707 180.894 42.584C180.409 42.3973 179.994 42.2107 179.648 42.024C179.303 41.8373 179.037 41.6133 178.85 41.352C178.664 41.0907 178.57 40.7547 178.57 40.344C178.57 39.7093 178.827 39.2193 179.34 38.874C179.863 38.5287 180.544 38.356 181.384 38.356C181.842 38.356 182.266 38.4027 182.658 38.496C183.06 38.58 183.433 38.7013 183.778 38.86L183.358 39.84C183.153 39.7467 182.934 39.6673 182.7 39.602C182.476 39.5273 182.248 39.4713 182.014 39.434C181.781 39.3873 181.543 39.364 181.3 39.364C180.796 39.364 180.409 39.448 180.138 39.616C179.877 39.7747 179.746 39.994 179.746 40.274C179.746 40.4793 179.807 40.6567 179.928 40.806C180.05 40.946 180.25 41.086 180.53 41.226C180.82 41.3567 181.202 41.5153 181.678 41.702C182.154 41.8793 182.56 42.0613 182.896 42.248C183.232 42.4347 183.489 42.6633 183.666 42.934C183.844 43.1953 183.932 43.5267 183.932 43.928ZM188.644 38.356C189.288 38.356 189.838 38.496 190.296 38.776C190.762 39.056 191.117 39.4527 191.36 39.966C191.612 40.47 191.738 41.0627 191.738 41.744V42.486H186.6C186.618 43.3353 186.833 43.984 187.244 44.432C187.664 44.8707 188.247 45.09 188.994 45.09C189.47 45.09 189.89 45.048 190.254 44.964C190.627 44.8707 191.01 44.74 191.402 44.572V45.65C191.019 45.818 190.641 45.9393 190.268 46.014C189.894 46.098 189.451 46.14 188.938 46.14C188.228 46.14 187.598 45.9953 187.048 45.706C186.506 45.4167 186.082 44.9873 185.774 44.418C185.475 43.8393 185.326 43.1347 185.326 42.304C185.326 41.4827 185.461 40.778 185.732 40.19C186.012 39.602 186.399 39.1493 186.894 38.832C187.398 38.5147 187.981 38.356 188.644 38.356ZM188.63 39.364C188.042 39.364 187.575 39.5553 187.23 39.938C186.894 40.3113 186.693 40.834 186.628 41.506H190.45C190.45 41.0767 190.384 40.7033 190.254 40.386C190.123 40.0687 189.922 39.8213 189.652 39.644C189.39 39.4573 189.05 39.364 188.63 39.364ZM197.26 38.356C198.156 38.356 198.833 38.5753 199.29 39.014C199.747 39.4433 199.976 40.1433 199.976 41.114V46H198.758V41.198C198.758 40.5913 198.623 40.1387 198.352 39.84C198.081 39.5413 197.657 39.392 197.078 39.392C196.247 39.392 195.673 39.6253 195.356 40.092C195.039 40.5587 194.88 41.2307 194.88 42.108V46H193.648V38.496H194.642L194.824 39.518H194.894C195.062 39.2567 195.267 39.042 195.51 38.874C195.762 38.6967 196.037 38.566 196.336 38.482C196.635 38.398 196.943 38.356 197.26 38.356ZM207.188 43.928C207.188 44.4133 207.067 44.8193 206.824 45.146C206.582 45.4727 206.236 45.72 205.788 45.888C205.34 46.056 204.808 46.14 204.192 46.14C203.67 46.14 203.217 46.098 202.834 46.014C202.461 45.93 202.13 45.8133 201.84 45.664V44.544C202.139 44.6933 202.498 44.8333 202.918 44.964C203.348 45.0853 203.782 45.146 204.22 45.146C204.846 45.146 205.298 45.048 205.578 44.852C205.858 44.6467 205.998 44.376 205.998 44.04C205.998 43.8533 205.947 43.6853 205.844 43.536C205.742 43.3867 205.555 43.2373 205.284 43.088C205.023 42.9387 204.645 42.7707 204.15 42.584C203.665 42.3973 203.25 42.2107 202.904 42.024C202.559 41.8373 202.293 41.6133 202.106 41.352C201.92 41.0907 201.826 40.7547 201.826 40.344C201.826 39.7093 202.083 39.2193 202.596 38.874C203.119 38.5287 203.8 38.356 204.64 38.356C205.098 38.356 205.522 38.4027 205.914 38.496C206.316 38.58 206.689 38.7013 207.034 38.86L206.614 39.84C206.409 39.7467 206.19 39.6673 205.956 39.602C205.732 39.5273 205.504 39.4713 205.27 39.434C205.037 39.3873 204.799 39.364 204.556 39.364C204.052 39.364 203.665 39.448 203.394 39.616C203.133 39.7747 203.002 39.994 203.002 40.274C203.002 40.4793 203.063 40.6567 203.184 40.806C203.306 40.946 203.506 41.086 203.786 41.226C204.076 41.3567 204.458 41.5153 204.934 41.702C205.41 41.8793 205.816 42.0613 206.152 42.248C206.488 42.4347 206.745 42.6633 206.922 42.934C207.1 43.1953 207.188 43.5267 207.188 43.928ZM211.9 38.356C212.544 38.356 213.094 38.496 213.552 38.776C214.018 39.056 214.373 39.4527 214.616 39.966C214.868 40.47 214.994 41.0627 214.994 41.744V42.486H209.856C209.874 43.3353 210.089 43.984 210.5 44.432C210.92 44.8707 211.503 45.09 212.25 45.09C212.726 45.09 213.146 45.048 213.51 44.964C213.883 44.8707 214.266 44.74 214.658 44.572V45.65C214.275 45.818 213.897 45.9393 213.524 46.014C213.15 46.098 212.707 46.14 212.194 46.14C211.484 46.14 210.854 45.9953 210.304 45.706C209.762 45.4167 209.338 44.9873 209.03 44.418C208.731 43.8393 208.582 43.1347 208.582 42.304C208.582 41.4827 208.717 40.778 208.988 40.19C209.268 39.602 209.655 39.1493 210.15 38.832C210.654 38.5147 211.237 38.356 211.9 38.356ZM211.886 39.364C211.298 39.364 210.831 39.5553 210.486 39.938C210.15 40.3113 209.949 40.834 209.884 41.506H213.706C213.706 41.0767 213.64 40.7033 213.51 40.386C213.379 40.0687 213.178 39.8213 212.908 39.644C212.646 39.4573 212.306 39.364 211.886 39.364ZM227.065 42.234C227.065 42.8593 226.981 43.4147 226.813 43.9C226.654 44.376 226.421 44.782 226.113 45.118C225.814 45.454 225.445 45.7107 225.007 45.888C224.577 46.056 224.097 46.14 223.565 46.14C223.07 46.14 222.613 46.056 222.193 45.888C221.773 45.7107 221.409 45.454 221.101 45.118C220.793 44.782 220.55 44.376 220.373 43.9C220.205 43.4147 220.121 42.8593 220.121 42.234C220.121 41.4033 220.261 40.7033 220.541 40.134C220.821 39.5553 221.222 39.1167 221.745 38.818C222.267 38.51 222.888 38.356 223.607 38.356C224.288 38.356 224.885 38.51 225.399 38.818C225.921 39.1167 226.327 39.5553 226.617 40.134C226.915 40.7033 227.065 41.4033 227.065 42.234ZM221.395 42.234C221.395 42.822 221.469 43.3353 221.619 43.774C221.777 44.2033 222.02 44.5347 222.347 44.768C222.673 45.0013 223.089 45.118 223.593 45.118C224.097 45.118 224.512 45.0013 224.839 44.768C225.165 44.5347 225.403 44.2033 225.553 43.774C225.711 43.3353 225.791 42.822 225.791 42.234C225.791 41.6367 225.711 41.128 225.553 40.708C225.394 40.288 225.151 39.966 224.825 39.742C224.507 39.5087 224.092 39.392 223.579 39.392C222.813 39.392 222.258 39.644 221.913 40.148C221.567 40.652 221.395 41.3473 221.395 42.234ZM232.475 39.448H230.585V46H229.353V39.448H228.037V38.874L229.353 38.454V38.02C229.353 37.376 229.446 36.8533 229.633 36.452C229.829 36.0507 230.109 35.7567 230.473 35.57C230.837 35.3833 231.276 35.29 231.789 35.29C232.088 35.29 232.358 35.318 232.601 35.374C232.853 35.4207 233.068 35.4767 233.245 35.542L232.923 36.508C232.774 36.4613 232.601 36.4147 232.405 36.368C232.209 36.3213 232.008 36.298 231.803 36.298C231.392 36.298 231.084 36.438 230.879 36.718C230.683 36.9887 230.585 37.418 230.585 38.006V38.496H232.475V39.448ZM242.31 41.758C242.254 41.562 242.198 41.3707 242.142 41.184C242.086 40.988 242.035 40.806 241.988 40.638C241.951 40.4607 241.914 40.2973 241.876 40.148C241.839 39.9987 241.811 39.8727 241.792 39.77H241.736C241.718 39.8727 241.69 39.9987 241.652 40.148C241.624 40.2973 241.587 40.4607 241.54 40.638C241.503 40.8153 241.456 41.002 241.4 41.198C241.354 41.3847 241.298 41.576 241.232 41.772L239.888 45.986H238.488L236.43 38.482H237.704L238.74 42.486C238.815 42.7567 238.885 43.032 238.95 43.312C239.016 43.5827 239.072 43.844 239.118 44.096C239.174 44.3387 239.212 44.5487 239.23 44.726H239.286C239.314 44.614 239.347 44.474 239.384 44.306C239.422 44.138 239.459 43.9607 239.496 43.774C239.543 43.5873 239.59 43.4007 239.636 43.214C239.692 43.0273 239.744 42.8593 239.79 42.71L241.12 38.482H242.464L243.752 42.71C243.818 42.9247 243.883 43.1533 243.948 43.396C244.023 43.6387 244.088 43.8767 244.144 44.11C244.2 44.334 244.238 44.5347 244.256 44.712H244.312C244.331 44.5533 244.364 44.3573 244.41 44.124C244.466 43.8813 244.527 43.62 244.592 43.34C244.667 43.0507 244.742 42.766 244.816 42.486L245.866 38.482H247.126L245.04 45.986H243.598L242.31 41.758ZM249.704 38.482C249.704 38.6593 249.695 38.8413 249.676 39.028C249.667 39.2147 249.653 39.3827 249.634 39.532H249.718C249.877 39.2707 250.078 39.056 250.32 38.888C250.563 38.72 250.834 38.594 251.132 38.51C251.431 38.4167 251.739 38.37 252.056 38.37C252.663 38.37 253.167 38.468 253.568 38.664C253.979 38.8507 254.287 39.1447 254.492 39.546C254.698 39.9473 254.8 40.47 254.8 41.114V46H253.582V41.198C253.582 40.5913 253.447 40.1387 253.176 39.84C252.906 39.5413 252.481 39.392 251.902 39.392C251.342 39.392 250.904 39.4993 250.586 39.714C250.269 39.9193 250.04 40.2273 249.9 40.638C249.77 41.0393 249.704 41.534 249.704 42.122V46H248.472V35.36H249.704V38.482ZM263.651 42.234C263.651 42.8593 263.567 43.4147 263.399 43.9C263.24 44.376 263.007 44.782 262.699 45.118C262.4 45.454 262.031 45.7107 261.593 45.888C261.163 46.056 260.683 46.14 260.151 46.14C259.656 46.14 259.199 46.056 258.779 45.888C258.359 45.7107 257.995 45.454 257.687 45.118C257.379 44.782 257.136 44.376 256.959 43.9C256.791 43.4147 256.707 42.8593 256.707 42.234C256.707 41.4033 256.847 40.7033 257.127 40.134C257.407 39.5553 257.808 39.1167 258.331 38.818C258.853 38.51 259.474 38.356 260.193 38.356C260.874 38.356 261.471 38.51 261.985 38.818C262.507 39.1167 262.913 39.5553 263.203 40.134C263.501 40.7033 263.651 41.4033 263.651 42.234ZM257.981 42.234C257.981 42.822 258.055 43.3353 258.205 43.774C258.363 44.2033 258.606 44.5347 258.933 44.768C259.259 45.0013 259.675 45.118 260.179 45.118C260.683 45.118 261.098 45.0013 261.425 44.768C261.751 44.5347 261.989 44.2033 262.139 43.774C262.297 43.3353 262.377 42.822 262.377 42.234C262.377 41.6367 262.297 41.128 262.139 40.708C261.98 40.288 261.737 39.966 261.411 39.742C261.093 39.5087 260.678 39.392 260.165 39.392C259.399 39.392 258.844 39.644 258.499 40.148C258.153 40.652 257.981 41.3473 257.981 42.234ZM268.064 38.496H269.38L271.004 42.766C271.097 43.018 271.181 43.2607 271.256 43.494C271.34 43.7273 271.414 43.956 271.48 44.18C271.545 44.3947 271.596 44.6047 271.634 44.81H271.69C271.746 44.5767 271.834 44.2733 271.956 43.9C272.077 43.5173 272.203 43.1347 272.334 42.752L273.86 38.496H275.19L271.956 47.036C271.778 47.5027 271.568 47.9087 271.326 48.254C271.092 48.6087 270.803 48.8793 270.458 49.066C270.122 49.262 269.711 49.36 269.226 49.36C269.002 49.36 268.806 49.346 268.638 49.318C268.47 49.2993 268.325 49.276 268.204 49.248V48.268C268.306 48.2867 268.428 48.3053 268.568 48.324C268.717 48.3427 268.871 48.352 269.03 48.352C269.319 48.352 269.566 48.296 269.772 48.184C269.986 48.0813 270.168 47.9273 270.318 47.722C270.467 47.526 270.593 47.2927 270.696 47.022L271.088 46.028L268.064 38.496ZM282.901 42.234C282.901 42.8593 282.817 43.4147 282.649 43.9C282.49 44.376 282.257 44.782 281.949 45.118C281.65 45.454 281.281 45.7107 280.843 45.888C280.413 46.056 279.933 46.14 279.401 46.14C278.906 46.14 278.449 46.056 278.029 45.888C277.609 45.7107 277.245 45.454 276.937 45.118C276.629 44.782 276.386 44.376 276.209 43.9C276.041 43.4147 275.957 42.8593 275.957 42.234C275.957 41.4033 276.097 40.7033 276.377 40.134C276.657 39.5553 277.058 39.1167 277.581 38.818C278.103 38.51 278.724 38.356 279.443 38.356C280.124 38.356 280.721 38.51 281.235 38.818C281.757 39.1167 282.163 39.5553 282.453 40.134C282.751 40.7033 282.901 41.4033 282.901 42.234ZM277.231 42.234C277.231 42.822 277.305 43.3353 277.455 43.774C277.613 44.2033 277.856 44.5347 278.183 44.768C278.509 45.0013 278.925 45.118 279.429 45.118C279.933 45.118 280.348 45.0013 280.675 44.768C281.001 44.5347 281.239 44.2033 281.389 43.774C281.547 43.3353 281.627 42.822 281.627 42.234C281.627 41.6367 281.547 41.128 281.389 40.708C281.23 40.288 280.987 39.966 280.661 39.742C280.343 39.5087 279.928 39.392 279.415 39.392C278.649 39.392 278.094 39.644 277.749 40.148C277.403 40.652 277.231 41.3473 277.231 42.234ZM291.125 38.496V46H290.117L289.935 45.006H289.879C289.72 45.2673 289.515 45.482 289.263 45.65C289.011 45.818 288.736 45.9393 288.437 46.014C288.138 46.098 287.826 46.14 287.499 46.14C286.902 46.14 286.398 46.0467 285.987 45.86C285.586 45.664 285.282 45.3653 285.077 44.964C284.872 44.5627 284.769 44.0447 284.769 43.41V38.496H286.015V43.326C286.015 43.9233 286.15 44.3713 286.421 44.67C286.692 44.9687 287.112 45.118 287.681 45.118C288.241 45.118 288.68 45.0153 288.997 44.81C289.324 44.5953 289.552 44.2873 289.683 43.886C289.823 43.4753 289.893 42.9807 289.893 42.402V38.496H291.125ZM299.986 38.37C300.901 38.37 301.577 38.5707 302.016 38.972C302.455 39.3733 302.674 40.0127 302.674 40.89V46H301.778L301.54 44.936H301.484C301.269 45.2067 301.045 45.4353 300.812 45.622C300.588 45.7993 300.327 45.93 300.028 46.014C299.739 46.098 299.384 46.14 298.964 46.14C298.516 46.14 298.11 46.0607 297.746 45.902C297.391 45.7433 297.111 45.5007 296.906 45.174C296.701 44.838 296.598 44.418 296.598 43.914C296.598 43.1673 296.892 42.5933 297.48 42.192C298.068 41.7813 298.973 41.5573 300.196 41.52L301.47 41.478V41.03C301.47 40.4047 301.335 39.9707 301.064 39.728C300.793 39.4853 300.411 39.364 299.916 39.364C299.524 39.364 299.151 39.4247 298.796 39.546C298.441 39.658 298.11 39.7887 297.802 39.938L297.424 39.014C297.751 38.8367 298.138 38.6873 298.586 38.566C299.034 38.4353 299.501 38.37 299.986 38.37ZM300.35 42.374C299.417 42.4113 298.768 42.5607 298.404 42.822C298.049 43.0833 297.872 43.452 297.872 43.928C297.872 44.348 297.998 44.656 298.25 44.852C298.511 45.048 298.843 45.146 299.244 45.146C299.879 45.146 300.406 44.9733 300.826 44.628C301.246 44.2733 301.456 43.732 301.456 43.004V42.332L300.35 42.374ZM308.492 38.356C308.632 38.356 308.781 38.3653 308.94 38.384C309.108 38.3933 309.252 38.412 309.374 38.44L309.22 39.574C309.098 39.546 308.963 39.5227 308.814 39.504C308.674 39.4853 308.538 39.476 308.408 39.476C308.118 39.476 307.843 39.5367 307.582 39.658C307.32 39.7793 307.087 39.952 306.882 40.176C306.676 40.3907 306.513 40.652 306.392 40.96C306.28 41.268 306.224 41.6133 306.224 41.996V46H304.992V38.496H306L306.14 39.868H306.196C306.354 39.588 306.546 39.336 306.77 39.112C306.994 38.8787 307.25 38.6967 307.54 38.566C307.829 38.426 308.146 38.356 308.492 38.356ZM313.4 38.356C314.044 38.356 314.594 38.496 315.052 38.776C315.518 39.056 315.873 39.4527 316.116 39.966C316.368 40.47 316.494 41.0627 316.494 41.744V42.486H311.356C311.374 43.3353 311.589 43.984 312 44.432C312.42 44.8707 313.003 45.09 313.75 45.09C314.226 45.09 314.646 45.048 315.01 44.964C315.383 44.8707 315.766 44.74 316.158 44.572V45.65C315.775 45.818 315.397 45.9393 315.024 46.014C314.65 46.098 314.207 46.14 313.694 46.14C312.984 46.14 312.354 45.9953 311.804 45.706C311.262 45.4167 310.838 44.9873 310.53 44.418C310.231 43.8393 310.082 43.1347 310.082 42.304C310.082 41.4827 310.217 40.778 310.488 40.19C310.768 39.602 311.155 39.1493 311.65 38.832C312.154 38.5147 312.737 38.356 313.4 38.356ZM313.386 39.364C312.798 39.364 312.331 39.5553 311.986 39.938C311.65 40.3113 311.449 40.834 311.384 41.506H315.206C315.206 41.0767 315.14 40.7033 315.01 40.386C314.879 40.0687 314.678 39.8213 314.408 39.644C314.146 39.4573 313.806 39.364 313.386 39.364ZM321.859 45.244C321.859 44.8987 321.943 44.656 322.111 44.516C322.279 44.376 322.479 44.306 322.713 44.306C322.955 44.306 323.161 44.376 323.329 44.516C323.506 44.656 323.595 44.8987 323.595 45.244C323.595 45.58 323.506 45.8227 323.329 45.972C323.161 46.1213 322.955 46.196 322.713 46.196C322.479 46.196 322.279 46.1213 322.111 45.972C321.943 45.8227 321.859 45.58 321.859 45.244ZM321.859 39.252C321.859 38.8973 321.943 38.65 322.111 38.51C322.279 38.37 322.479 38.3 322.713 38.3C322.955 38.3 323.161 38.37 323.329 38.51C323.506 38.65 323.595 38.8973 323.595 39.252C323.595 39.588 323.506 39.8307 323.329 39.98C323.161 40.1293 322.955 40.204 322.713 40.204C322.479 40.204 322.279 40.1293 322.111 39.98C321.943 39.8307 321.859 39.588 321.859 39.252ZM328.237 42.164C328.237 42.9107 328.162 43.6433 328.013 44.362C327.873 45.0807 327.649 45.762 327.341 46.406C327.042 47.0593 326.655 47.6613 326.179 48.212H325.031C325.46 47.624 325.819 46.9987 326.109 46.336C326.398 45.6827 326.617 45.0013 326.767 44.292C326.916 43.5827 326.991 42.8687 326.991 42.15C326.991 41.4127 326.916 40.6847 326.767 39.966C326.617 39.2473 326.398 38.552 326.109 37.88C325.819 37.208 325.455 36.5827 325.017 36.004H326.179C326.655 36.564 327.042 37.1753 327.341 37.838C327.649 38.5007 327.873 39.196 328.013 39.924C328.162 40.652 328.237 41.3987 328.237 42.164Z" fill="#F95F80"/>
</svg>
