<svg width="65" height="64" viewBox="0 0 65 64" fill="none" xmlns="http://www.w3.org/2000/svg">
<rect x="0.5" width="64" height="64" rx="32" fill="#F95F80" fill-opacity="0.1"/>
<path d="M30.7125 36.6925L39.975 27.8575L38.2687 26.2688L30.8344 33.36L26.7312 29.4462L24.9437 31.1512L30.7125 36.6925ZM32.5 47C28.7083 46.0958 25.5938 43.9969 23.1562 40.7031C20.7188 37.4094 19.5 33.7992 19.5 29.8725V20.65L32.5 16L45.5 20.65V29.8725C45.5 33.7992 44.2812 37.4094 41.8438 40.7031C39.4062 43.9969 36.2917 46.0958 32.5 47ZM32.5 44.5975C35.6146 43.6158 38.1536 41.7623 40.1172 39.0369C42.0807 36.3115 43.0625 33.2567 43.0625 29.8725V22.2775L32.5 18.48L21.9375 22.2775V29.8725C21.9375 33.2567 22.9193 36.3115 24.8828 39.0369C26.8464 41.7623 29.3854 43.6158 32.5 44.5975Z" fill="#F95F80"/>
</svg>
